<svg id="svg" version="1.1" xmlns="http://www.w3.org/2000/svg" xmlns:xlink="http://www.w3.org/1999/xlink" width="400" height="305.33333333333337" viewBox="0, 0, 400,305.33333333333337"><g id="svgg"><path id="path0" d="M157.099 76.624 C 153.250 77.100,149.145 77.919,148.704 78.299 C 148.451 78.517,147.795 78.780,147.245 78.883 C 146.695 78.987,145.736 79.418,145.113 79.841 C 144.490 80.264,143.806 80.611,143.593 80.611 C 143.380 80.611,143.206 80.739,143.206 80.895 C 143.206 81.052,142.897 81.278,142.519 81.397 C 142.141 81.517,141.407 81.938,140.887 82.334 C 140.368 82.730,139.846 83.053,139.728 83.053 C 139.610 83.053,138.886 83.672,138.119 84.427 C 137.353 85.183,136.604 85.802,136.454 85.802 C 136.305 85.802,136.183 86.008,136.183 86.260 C 136.183 86.511,136.053 86.718,135.893 86.718 C 135.059 86.718,130.806 92.451,129.778 94.962 C 129.607 95.382,129.328 95.931,129.159 96.183 C 128.806 96.709,128.724 96.895,127.745 99.413 C 127.348 100.434,127.023 101.571,127.023 101.940 C 127.023 102.309,126.740 103.397,126.395 104.359 C 125.559 106.688,125.442 116.553,126.231 118.222 C 126.495 118.780,126.843 119.855,127.005 120.611 C 127.389 122.402,128.599 125.907,128.908 126.122 C 129.041 126.214,129.325 126.763,129.540 127.343 C 129.878 128.255,131.073 130.555,132.061 132.195 C 132.637 133.151,134.476 135.420,135.416 136.336 C 138.260 139.104,140.801 141.374,141.056 141.374 C 141.216 141.374,141.868 141.720,142.506 142.143 C 144.413 143.409,144.523 143.475,146.047 144.272 C 146.853 144.693,147.664 145.038,147.849 145.038 C 148.034 145.038,148.886 145.364,149.742 145.761 C 150.679 146.197,152.190 146.563,153.541 146.682 C 154.774 146.791,156.078 147.038,156.438 147.230 C 157.314 147.699,161.201 147.698,162.055 147.230 C 162.429 147.024,164.009 146.730,165.566 146.577 C 167.369 146.400,168.836 146.070,169.607 145.668 C 170.272 145.322,171.062 145.038,171.363 145.038 C 171.664 145.038,172.423 144.763,173.050 144.427 C 173.677 144.092,174.528 143.817,174.941 143.817 C 175.751 143.817,176.752 143.195,180.722 140.229 C 182.127 139.179,183.398 138.321,183.547 138.321 C 183.695 138.321,183.817 138.095,183.817 137.819 C 183.817 137.543,184.435 136.594,185.191 135.709 C 185.947 134.825,186.565 134.007,186.565 133.893 C 186.565 133.778,186.840 133.335,187.176 132.908 C 188.025 131.828,187.943 131.380,186.794 130.833 C 186.248 130.573,185.252 130.029,184.580 129.625 C 183.908 129.220,182.809 128.610,182.137 128.269 C 180.856 127.618,180.243 127.258,178.852 126.336 C 177.845 125.670,176.802 126.202,176.161 127.710 C 175.964 128.172,175.700 128.550,175.573 128.550 C 175.445 128.550,175.168 128.968,174.956 129.480 C 174.744 129.992,174.170 130.617,173.681 130.870 C 172.874 131.288,172.530 131.557,170.967 132.991 C 170.701 133.235,170.341 133.435,170.168 133.435 C 169.995 133.435,169.519 133.698,169.111 134.019 C 168.703 134.340,167.620 134.752,166.704 134.935 C 165.788 135.117,164.287 135.473,163.369 135.725 C 160.921 136.397,156.161 136.338,154.805 135.619 C 154.219 135.309,153.386 134.969,152.952 134.863 C 151.933 134.614,149.313 133.151,149.313 132.831 C 149.313 132.696,148.998 132.506,148.613 132.410 C 146.902 131.980,141.691 125.558,141.219 123.298 C 141.103 122.744,140.816 121.985,140.579 121.612 C 140.343 121.239,139.999 120.232,139.816 119.374 C 139.632 118.517,139.290 117.448,139.055 116.999 C 138.533 115.997,138.468 110.269,138.962 108.700 C 139.146 108.114,139.477 106.422,139.696 104.942 C 139.915 103.462,140.298 102.019,140.547 101.736 C 140.797 101.453,141.094 100.784,141.207 100.250 C 141.320 99.716,141.602 99.122,141.832 98.931 C 142.062 98.740,142.336 98.196,142.440 97.721 C 142.644 96.794,146.862 92.047,147.914 91.560 C 148.264 91.399,149.099 90.933,149.771 90.525 C 154.097 87.898,161.998 86.881,165.111 88.550 C 165.738 88.885,166.511 89.160,166.830 89.160 C 167.148 89.160,167.906 89.458,168.514 89.821 C 171.085 91.360,172.519 92.330,172.519 92.533 C 172.519 92.653,172.897 92.908,173.359 93.100 C 173.869 93.312,174.678 94.223,175.420 95.420 C 176.318 96.869,176.819 97.393,177.314 97.398 C 178.085 97.406,179.542 96.803,179.542 96.477 C 179.542 96.356,179.954 96.087,180.458 95.878 C 180.962 95.669,181.374 95.407,181.374 95.296 C 181.374 95.185,181.821 94.831,182.366 94.510 C 182.912 94.190,183.540 93.748,183.762 93.529 C 183.984 93.309,184.332 93.130,184.534 93.130 C 184.737 93.130,185.125 92.870,185.398 92.551 C 185.670 92.233,186.136 91.837,186.434 91.670 C 187.000 91.354,186.670 90.745,184.354 87.835 C 181.911 84.764,176.725 80.308,175.590 80.304 C 175.328 80.303,174.565 79.964,173.893 79.550 C 173.221 79.136,172.393 78.793,172.053 78.788 C 171.712 78.783,171.113 78.554,170.721 78.279 C 170.299 77.984,168.930 77.672,167.370 77.516 C 165.920 77.370,164.360 77.123,163.904 76.966 C 162.672 76.542,159.183 76.366,157.099 76.624 M235.725 76.617 C 234.634 76.737,233.354 76.998,232.881 77.196 C 232.408 77.395,231.513 77.557,230.892 77.557 C 230.270 77.557,229.249 77.832,228.623 78.168 C 227.996 78.504,227.158 78.779,226.761 78.779 C 226.364 78.779,225.533 79.122,224.915 79.542 C 224.296 79.962,223.704 80.305,223.600 80.305 C 223.495 80.305,223.192 80.508,222.926 80.755 C 222.660 81.002,221.412 82.108,220.153 83.213 C 215.274 87.491,212.155 98.290,214.501 102.787 C 214.752 103.269,214.959 103.892,214.960 104.170 C 214.963 105.095,216.513 107.683,217.876 109.041 C 220.089 111.246,222.270 112.977,222.834 112.977 C 222.950 112.977,223.802 113.333,224.728 113.768 C 228.441 115.511,228.906 115.691,230.229 115.893 C 230.985 116.008,231.947 116.276,232.366 116.488 C 232.786 116.699,233.820 117.018,234.663 117.197 C 235.506 117.375,236.605 117.734,237.105 117.995 C 237.606 118.256,238.361 118.470,238.783 118.471 C 239.205 118.472,240.064 118.748,240.690 119.084 C 241.317 119.420,242.140 119.696,242.518 119.697 C 242.896 119.699,243.893 120.038,244.733 120.451 C 245.573 120.864,246.471 121.207,246.730 121.212 C 247.265 121.223,249.364 122.928,251.064 124.733 C 253.601 127.427,251.246 134.962,247.866 134.962 C 247.477 134.962,246.819 135.201,246.404 135.494 C 245.309 136.266,239.455 136.428,236.687 135.763 C 235.570 135.495,233.720 135.145,232.575 134.986 C 231.429 134.827,230.321 134.555,230.112 134.381 C 229.903 134.207,228.891 133.869,227.864 133.629 C 226.837 133.390,225.681 132.973,225.296 132.704 C 224.912 132.434,224.412 132.214,224.186 132.214 C 223.961 132.214,223.326 131.870,222.775 131.450 C 222.225 131.031,221.650 130.686,221.498 130.685 C 221.346 130.684,220.264 130.066,219.093 129.311 C 216.512 127.647,216.590 127.651,216.183 129.160 C 216.002 129.832,215.725 130.382,215.567 130.382 C 215.408 130.382,215.186 130.760,215.073 131.221 C 214.960 131.683,214.545 132.540,214.151 133.124 C 213.757 133.709,213.435 134.367,213.435 134.587 C 213.435 134.807,213.161 135.359,212.827 135.814 C 211.578 137.513,211.663 139.344,213.020 139.947 C 213.668 140.235,214.748 140.809,215.420 141.222 C 216.092 141.635,216.847 142.061,217.099 142.169 C 217.351 142.277,218.295 142.692,219.197 143.091 C 220.099 143.490,220.992 143.818,221.182 143.819 C 221.372 143.820,221.939 144.036,222.443 144.299 C 222.947 144.561,224.243 144.982,225.325 145.233 C 226.406 145.484,227.517 145.810,227.795 145.959 C 228.242 146.198,230.205 146.497,238.015 147.515 C 240.205 147.801,242.269 147.687,244.427 147.161 C 245.099 146.997,246.991 146.746,248.632 146.603 C 250.673 146.425,251.790 146.185,252.168 145.843 C 252.471 145.568,252.901 145.344,253.122 145.344 C 255.052 145.344,262.240 140.416,262.280 139.065 C 262.286 138.887,262.534 138.475,262.833 138.149 C 265.383 135.370,266.799 128.009,265.649 123.511 C 265.313 122.198,265.038 120.743,265.038 120.278 C 265.038 119.813,264.832 119.227,264.580 118.975 C 264.328 118.723,264.122 118.399,264.122 118.255 C 264.122 118.110,263.716 117.516,263.219 116.935 C 262.722 116.354,262.309 115.715,262.302 115.517 C 262.296 115.318,262.015 115.068,261.679 114.962 C 261.344 114.855,261.066 114.606,261.063 114.407 C 261.058 114.052,258.169 112.151,255.941 111.037 C 255.318 110.726,254.603 110.294,254.351 110.079 C 254.099 109.863,253.412 109.586,252.824 109.464 C 252.237 109.342,251.583 109.103,251.371 108.932 C 251.159 108.762,250.361 108.506,249.597 108.363 C 248.834 108.220,247.770 107.897,247.234 107.644 C 246.698 107.391,245.517 107.044,244.610 106.874 C 243.703 106.703,242.800 106.429,242.602 106.265 C 242.405 106.101,241.287 105.831,240.119 105.666 C 238.083 105.377,236.107 104.734,233.402 103.482 C 232.712 103.162,232.024 102.899,231.875 102.896 C 230.830 102.879,227.989 99.472,227.744 97.943 C 227.378 95.661,227.730 92.665,228.438 92.024 C 228.751 91.740,229.008 91.348,229.008 91.151 C 229.008 90.515,230.347 89.534,231.756 89.137 C 232.511 88.924,233.379 88.538,233.684 88.279 C 234.640 87.467,244.279 87.641,246.166 88.504 C 246.955 88.865,247.835 89.160,248.122 89.160 C 248.618 89.160,251.545 90.385,252.519 90.999 C 252.771 91.158,253.422 91.489,253.966 91.734 C 254.510 91.979,255.565 92.600,256.311 93.113 C 257.057 93.626,257.730 94.046,257.807 94.046 C 257.936 94.046,260.437 89.704,261.325 87.939 C 261.536 87.519,261.925 86.780,262.188 86.296 C 262.451 85.813,262.685 85.001,262.707 84.493 C 262.756 83.396,262.106 82.946,257.557 80.924 C 256.885 80.626,255.566 80.021,254.626 79.580 C 253.686 79.139,252.583 78.779,252.175 78.779 C 251.767 78.779,251.148 78.579,250.800 78.335 C 250.451 78.091,249.012 77.747,247.602 77.572 C 246.192 77.397,244.595 77.126,244.054 76.971 C 242.621 76.560,238.023 76.364,235.725 76.617 " stroke="none" fill="#f6f7fa" fill-rule="evenodd"></path><path id="path1" d="M196.641 18.626 C 196.641 19.092,196.425 19.246,195.725 19.275 C 194.124 19.342,194.048 19.376,193.948 20.076 C 193.866 20.656,193.663 20.763,192.651 20.763 C 191.654 20.763,191.450 20.867,191.450 21.374 C 191.450 21.894,191.247 21.985,190.076 21.985 C 188.906 21.985,188.702 22.075,188.702 22.595 C 188.702 23.159,188.366 23.361,187.653 23.223 C 186.882 23.075,185.954 23.569,185.954 24.128 C 185.954 24.628,185.747 24.733,184.753 24.733 C 183.821 24.733,183.509 24.869,183.359 25.344 C 183.208 25.818,182.897 25.954,181.964 25.954 C 180.887 25.954,180.763 26.033,180.763 26.718 C 180.763 27.419,180.651 27.481,179.389 27.481 C 178.219 27.481,178.015 27.571,178.015 28.092 C 178.015 28.585,177.812 28.702,176.957 28.702 C 176.212 28.702,175.803 28.883,175.573 29.313 C 175.393 29.649,174.976 29.924,174.646 29.924 C 174.209 29.924,174.046 30.132,174.046 30.687 C 174.046 31.388,173.934 31.450,172.672 31.450 C 171.515 31.450,171.298 31.544,171.298 32.044 C 171.298 32.523,171.049 32.655,170.000 32.731 C 168.983 32.804,168.711 32.940,168.745 33.359 C 168.779 33.793,168.536 33.893,167.447 33.893 C 166.221 33.893,166.107 33.958,166.107 34.656 C 166.107 35.358,165.995 35.420,164.733 35.420 C 163.562 35.420,163.359 35.510,163.359 36.031 C 163.359 36.542,163.155 36.641,162.109 36.641 C 161.141 36.641,160.825 36.771,160.708 37.217 C 160.607 37.605,160.180 37.853,159.399 37.978 C 158.588 38.108,158.192 38.347,158.080 38.776 C 157.953 39.264,157.664 39.389,156.670 39.389 C 155.636 39.389,155.420 39.492,155.420 39.982 C 155.420 40.462,155.171 40.594,154.122 40.669 C 153.043 40.748,152.808 40.879,152.727 41.450 C 152.645 42.030,152.441 42.137,151.429 42.137 C 150.433 42.137,150.229 42.241,150.229 42.748 C 150.229 43.196,150.025 43.359,149.466 43.359 C 148.913 43.359,148.702 43.523,148.702 43.952 C 148.702 44.431,148.454 44.563,147.405 44.639 C 146.326 44.717,146.090 44.849,146.009 45.420 C 145.927 46.002,145.725 46.107,144.683 46.107 C 143.711 46.107,143.421 46.234,143.295 46.718 C 143.169 47.196,142.878 47.328,141.949 47.328 C 140.967 47.328,140.763 47.433,140.763 47.939 C 140.763 48.359,140.549 48.560,140.076 48.582 C 138.301 48.666,138.165 48.721,138.070 49.389 C 137.986 49.984,137.790 50.076,136.620 50.076 C 135.471 50.076,135.267 50.168,135.267 50.687 C 135.267 51.196,135.064 51.298,134.046 51.298 C 133.051 51.298,132.824 51.405,132.824 51.876 C 132.824 52.534,132.256 52.824,130.967 52.824 C 130.280 52.824,130.076 52.964,130.076 53.435 C 130.076 53.946,129.873 54.046,128.826 54.046 C 127.858 54.046,127.542 54.176,127.426 54.622 C 127.323 55.014,126.894 55.259,126.080 55.389 C 125.155 55.537,124.885 55.717,124.885 56.187 C 124.885 56.631,124.680 56.794,124.122 56.794 C 123.562 56.794,123.359 56.957,123.359 57.405 C 123.359 57.925,123.155 58.015,121.985 58.015 C 120.814 58.015,120.611 58.106,120.611 58.626 C 120.611 59.134,120.407 59.237,119.395 59.237 C 118.353 59.237,118.152 59.346,117.988 60.000 C 117.825 60.651,117.621 60.763,116.608 60.763 C 115.623 60.763,115.420 60.868,115.420 61.374 C 115.420 61.893,115.216 61.985,114.067 61.985 C 112.899 61.985,112.700 62.078,112.609 62.672 C 112.550 63.061,112.323 63.319,112.086 63.268 C 111.150 63.064,109.924 63.562,109.924 64.146 C 109.924 64.627,109.703 64.733,108.702 64.733 C 107.697 64.733,107.481 64.838,107.481 65.326 C 107.481 65.805,107.232 65.937,106.183 66.013 C 105.104 66.091,104.869 66.223,104.788 66.794 C 104.705 67.376,104.503 67.481,103.462 67.481 C 102.490 67.481,102.200 67.609,102.073 68.092 C 101.952 68.555,101.657 68.702,100.852 68.702 C 100.047 68.702,99.752 68.850,99.630 69.313 C 99.491 69.848,98.997 70.079,98.244 69.960 C 98.118 69.940,98.015 70.267,98.015 70.687 C 98.015 71.388,97.903 71.450,96.641 71.450 C 95.471 71.450,95.267 71.541,95.267 72.061 C 95.267 72.570,95.064 72.672,94.046 72.672 C 93.028 72.672,92.824 72.774,92.824 73.282 C 92.824 73.737,92.609 73.902,91.985 73.928 C 90.356 73.997,90.228 74.052,90.131 74.733 C 90.047 75.327,89.851 75.420,88.681 75.420 C 87.545 75.420,87.328 75.515,87.328 76.013 C 87.328 76.492,87.080 76.624,86.031 76.700 C 85.045 76.771,84.742 76.916,84.770 77.299 C 84.798 77.671,84.455 77.858,83.473 78.005 C 82.424 78.162,82.137 78.332,82.137 78.797 C 82.137 79.295,81.919 79.389,80.763 79.389 C 79.593 79.389,79.389 79.480,79.389 80.000 C 79.389 80.471,79.186 80.611,78.498 80.611 C 77.210 80.611,76.641 80.901,76.641 81.559 C 76.641 82.019,76.417 82.137,75.544 82.137 C 74.703 82.137,74.409 82.280,74.287 82.748 C 74.184 83.143,73.870 83.359,73.400 83.359 C 72.882 83.359,72.672 83.531,72.672 83.952 C 72.672 84.431,72.423 84.563,71.374 84.639 C 70.295 84.717,70.060 84.849,69.979 85.420 C 69.896 85.999,69.693 86.107,68.681 86.107 C 67.684 86.107,67.481 86.210,67.481 86.718 C 67.481 87.238,67.277 87.328,66.107 87.328 C 64.936 87.328,64.733 87.419,64.733 87.939 C 64.733 88.306,64.519 88.562,64.198 88.580 C 63.905 88.596,63.321 88.631,62.901 88.656 C 62.365 88.688,62.109 88.903,62.042 89.373 C 61.964 89.923,61.717 90.060,60.668 90.136 C 59.669 90.209,59.399 90.346,59.432 90.763 C 59.466 91.198,59.223 91.298,58.134 91.298 C 56.908 91.298,56.794 91.363,56.794 92.061 C 56.794 92.762,56.682 92.824,55.420 92.824 C 54.249 92.824,54.046 92.915,54.046 93.435 C 54.046 93.946,53.842 94.046,52.796 94.046 C 51.818 94.046,51.512 94.174,51.392 94.635 C 51.286 95.038,50.863 95.287,50.046 95.425 C 49.147 95.577,48.855 95.769,48.855 96.210 C 48.855 96.629,48.640 96.794,48.092 96.794 C 47.532 96.794,47.328 96.957,47.328 97.405 C 47.328 97.925,47.125 98.015,45.954 98.015 C 44.784 98.015,44.580 98.106,44.580 98.626 C 44.580 99.135,44.377 99.237,43.359 99.237 C 42.260 99.237,42.137 99.313,42.137 100.000 C 42.137 100.701,42.025 100.763,40.763 100.763 C 39.593 100.763,39.389 100.854,39.389 101.374 C 39.389 101.893,39.186 101.985,38.037 101.985 C 36.868 101.985,36.669 102.078,36.579 102.672 C 36.520 103.061,36.293 103.319,36.056 103.268 C 35.119 103.064,33.893 103.562,33.893 104.146 C 33.893 104.627,33.673 104.733,32.672 104.733 C 31.666 104.733,31.450 104.838,31.450 105.326 C 31.450 105.805,31.202 105.937,30.153 106.013 C 29.074 106.091,28.839 106.223,28.757 106.794 C 28.675 107.376,28.473 107.481,27.431 107.481 C 26.459 107.481,26.169 107.609,26.043 108.092 C 25.941 108.479,25.626 108.702,25.180 108.702 C 24.160 108.702,23.511 109.012,23.511 109.498 C 23.511 109.869,22.936 110.074,22.214 109.960 C 22.088 109.940,21.985 110.267,21.985 110.687 C 21.985 111.388,21.873 111.450,20.611 111.450 C 19.440 111.450,19.237 111.541,19.237 112.061 C 19.237 112.570,19.033 112.672,18.015 112.672 L 16.794 112.672 16.794 114.046 L 16.794 115.420 18.015 115.420 C 19.033 115.420,19.237 115.522,19.237 116.031 C 19.237 116.551,19.440 116.641,20.611 116.641 C 21.781 116.641,21.985 116.732,21.985 117.252 C 21.985 117.700,22.188 117.863,22.748 117.863 C 23.296 117.863,23.511 118.027,23.511 118.446 C 23.511 118.887,23.803 119.080,24.703 119.232 C 25.519 119.369,25.943 119.618,26.048 120.022 C 26.169 120.482,26.475 120.611,27.452 120.611 C 28.475 120.611,28.702 120.716,28.702 121.189 C 28.702 121.847,29.271 122.137,30.559 122.137 C 31.247 122.137,31.450 122.277,31.450 122.748 C 31.450 123.254,31.654 123.359,32.636 123.359 C 33.565 123.359,33.856 123.491,33.982 123.969 C 34.108 124.453,34.398 124.580,35.370 124.580 C 36.412 124.580,36.614 124.685,36.696 125.267 C 36.777 125.838,37.013 125.970,38.092 126.048 C 39.141 126.124,39.389 126.256,39.389 126.735 C 39.389 127.235,39.606 127.328,40.763 127.328 C 41.934 127.328,42.137 127.419,42.137 127.939 C 42.137 128.446,42.341 128.550,43.338 128.550 C 44.350 128.550,44.553 128.657,44.635 129.237 C 44.716 129.808,44.952 129.940,46.031 130.018 C 47.080 130.093,47.328 130.225,47.328 130.705 C 47.328 131.126,47.539 131.298,48.056 131.298 C 48.527 131.298,48.840 131.513,48.943 131.908 C 49.065 132.373,49.360 132.519,50.179 132.519 C 51.063 132.519,51.273 132.642,51.353 133.206 C 51.434 133.777,51.669 133.909,52.748 133.987 C 53.797 134.063,54.046 134.195,54.046 134.674 C 54.046 135.172,54.263 135.267,55.399 135.267 C 56.569 135.267,56.765 135.360,56.849 135.954 C 56.927 136.502,57.172 136.660,58.060 136.734 C 58.860 136.801,59.218 136.994,59.329 137.421 C 59.451 137.888,59.753 138.015,60.735 138.015 C 61.781 138.015,61.985 138.115,61.985 138.626 C 61.985 139.146,62.188 139.237,63.359 139.237 C 64.621 139.237,64.733 139.299,64.733 140.000 C 64.733 140.701,64.845 140.763,66.107 140.763 C 67.277 140.763,67.481 140.854,67.481 141.374 C 67.481 141.883,67.684 141.985,68.702 141.985 C 69.720 141.985,69.924 142.087,69.924 142.595 C 69.924 143.116,70.127 143.206,71.298 143.206 C 72.560 143.206,72.672 143.268,72.672 143.969 C 72.672 144.570,72.827 144.733,73.400 144.733 C 73.870 144.733,74.184 144.948,74.287 145.344 C 74.408 145.806,74.703 145.954,75.508 145.954 C 76.308 145.954,76.609 146.103,76.727 146.556 C 76.839 146.981,77.246 147.216,78.111 147.354 C 78.952 147.489,79.383 147.731,79.487 148.126 C 79.604 148.572,79.919 148.702,80.887 148.702 C 81.922 148.702,82.137 148.805,82.137 149.295 C 82.137 149.775,82.386 149.907,83.435 149.982 C 84.498 150.059,84.733 150.187,84.733 150.687 C 84.733 151.187,84.968 151.315,86.031 151.392 C 87.080 151.468,87.328 151.599,87.328 152.079 C 87.328 152.578,87.545 152.672,88.702 152.672 C 89.873 152.672,90.076 152.762,90.076 153.282 C 90.076 153.803,90.280 153.893,91.450 153.893 C 92.712 153.893,92.824 153.955,92.824 154.656 C 92.824 155.344,92.947 155.420,94.046 155.420 C 95.064 155.420,95.267 155.522,95.267 156.031 C 95.267 156.551,95.471 156.641,96.641 156.641 C 97.812 156.641,98.015 156.732,98.015 157.252 C 98.015 157.700,98.219 157.863,98.779 157.863 C 99.337 157.863,99.542 158.026,99.542 158.470 C 99.542 158.940,99.812 159.120,100.737 159.268 C 101.551 159.398,101.980 159.643,102.082 160.035 C 102.199 160.481,102.515 160.611,103.483 160.611 C 104.506 160.611,104.733 160.716,104.733 161.189 C 104.733 161.847,105.302 162.137,106.590 162.137 C 107.269 162.137,107.481 162.279,107.481 162.731 C 107.481 163.210,107.730 163.342,108.779 163.418 C 109.818 163.493,110.058 163.618,109.987 164.046 C 109.912 164.488,110.131 164.580,111.263 164.580 C 112.447 164.580,112.642 164.672,112.727 165.267 C 112.808 165.838,113.043 165.970,114.122 166.048 C 115.171 166.124,115.420 166.256,115.420 166.735 C 115.420 167.221,115.635 167.328,116.606 167.328 C 117.535 167.328,117.826 167.460,117.951 167.939 C 118.078 168.424,118.368 168.550,119.361 168.550 C 120.490 168.550,120.611 168.623,120.611 169.313 C 120.611 170.014,120.723 170.076,121.985 170.076 C 123.155 170.076,123.359 170.167,123.359 170.687 C 123.359 171.135,123.562 171.298,124.122 171.298 C 124.670 171.298,124.885 171.462,124.885 171.882 C 124.885 172.322,125.177 172.515,126.077 172.667 C 126.893 172.805,127.317 173.053,127.422 173.457 C 127.543 173.918,127.849 174.046,128.826 174.046 C 129.873 174.046,130.076 174.145,130.076 174.656 C 130.076 175.175,130.280 175.267,131.429 175.267 C 132.600 175.267,132.795 175.360,132.880 175.954 C 132.957 176.502,133.203 176.660,134.091 176.734 C 134.891 176.801,135.248 176.994,135.360 177.421 C 135.482 177.888,135.784 178.015,136.765 178.015 C 137.812 178.015,138.015 178.115,138.015 178.626 C 138.015 179.146,138.219 179.237,139.389 179.237 C 140.651 179.237,140.763 179.299,140.763 180.000 C 140.763 180.683,140.888 180.763,141.949 180.763 C 142.878 180.763,143.169 180.896,143.295 181.374 C 143.421 181.859,143.711 181.985,144.704 181.985 C 145.751 181.985,145.954 182.084,145.954 182.595 C 145.954 183.116,146.158 183.206,147.328 183.206 C 148.590 183.206,148.702 183.268,148.702 183.969 C 148.702 184.570,148.857 184.733,149.430 184.733 C 149.901 184.733,150.214 184.948,150.317 185.344 C 150.440 185.811,150.734 185.954,151.574 185.954 C 152.446 185.954,152.672 186.073,152.672 186.529 C 152.672 187.115,153.441 187.469,154.733 187.477 C 155.215 187.480,155.420 187.663,155.420 188.092 C 155.420 188.603,155.623 188.702,156.670 188.702 C 157.663 188.702,157.953 188.828,158.079 189.313 C 158.204 189.789,158.496 189.924,159.404 189.924 C 160.379 189.924,160.584 190.035,160.666 190.611 C 160.747 191.182,160.982 191.314,162.061 191.392 C 163.110 191.468,163.359 191.599,163.359 192.079 C 163.359 192.578,163.576 192.672,164.733 192.672 C 165.903 192.672,166.107 192.762,166.107 193.282 C 166.107 193.790,166.310 193.893,167.307 193.893 C 168.319 193.893,168.522 194.001,168.605 194.580 C 168.686 195.151,168.921 195.283,170.000 195.361 C 171.049 195.437,171.298 195.569,171.298 196.048 C 171.298 196.547,171.515 196.641,172.672 196.641 C 173.842 196.641,174.046 196.732,174.046 197.252 C 174.046 197.659,174.249 197.863,174.656 197.863 C 174.992 197.863,175.267 197.990,175.267 198.146 C 175.267 198.718,176.250 199.389,177.085 199.389 C 177.687 199.389,177.992 199.572,178.104 200.000 C 178.231 200.485,178.520 200.611,179.513 200.611 C 180.536 200.611,180.763 200.716,180.763 201.189 C 180.763 201.819,181.329 202.137,182.447 202.137 C 182.897 202.137,183.237 202.366,183.359 202.748 C 183.509 203.222,183.821 203.359,184.753 203.359 C 185.751 203.359,185.954 203.462,185.954 203.969 C 185.954 204.488,186.158 204.580,187.307 204.580 C 188.477 204.580,188.673 204.673,188.757 205.267 C 188.839 205.838,189.074 205.970,190.153 206.048 C 191.187 206.123,191.450 206.259,191.450 206.718 C 191.450 207.176,191.714 207.312,192.748 207.387 C 193.787 207.462,194.028 207.587,193.956 208.015 C 193.882 208.459,194.102 208.550,195.254 208.550 C 196.530 208.550,196.641 208.611,196.641 209.313 L 196.641 210.076 200.000 210.076 L 203.359 210.076 203.359 209.313 C 203.359 208.612,203.471 208.550,204.733 208.550 C 205.903 208.550,206.107 208.459,206.107 207.939 C 206.107 207.430,206.310 207.328,207.328 207.328 C 208.346 207.328,208.550 207.226,208.550 206.718 C 208.550 206.197,208.753 206.107,209.924 206.107 C 211.186 206.107,211.298 206.045,211.298 205.344 C 211.298 204.642,211.410 204.580,212.672 204.580 C 213.842 204.580,214.046 204.490,214.046 203.969 C 214.046 203.458,214.249 203.359,215.296 203.359 C 216.289 203.359,216.579 203.233,216.705 202.748 C 216.831 202.270,217.122 202.137,218.051 202.137 C 219.112 202.137,219.237 202.057,219.237 201.374 C 219.237 200.673,219.349 200.611,220.611 200.611 C 221.781 200.611,221.985 200.520,221.985 200.000 C 221.985 199.480,222.188 199.389,223.359 199.389 C 224.621 199.389,224.733 199.327,224.733 198.626 C 224.733 197.925,224.845 197.863,226.107 197.863 C 227.277 197.863,227.481 197.772,227.481 197.252 C 227.481 196.743,227.684 196.641,228.702 196.641 C 229.720 196.641,229.924 196.539,229.924 196.031 C 229.924 195.510,230.127 195.420,231.298 195.420 C 232.560 195.420,232.672 195.358,232.672 194.656 C 232.672 193.955,232.784 193.893,234.046 193.893 C 235.216 193.893,235.420 193.803,235.420 193.282 C 235.420 192.774,235.623 192.672,236.641 192.672 C 237.647 192.672,237.863 192.567,237.863 192.079 C 237.863 191.599,238.111 191.468,239.160 191.392 C 240.239 191.314,240.474 191.182,240.556 190.611 C 240.640 190.016,240.836 189.924,242.006 189.924 C 243.155 189.924,243.359 189.832,243.359 189.313 C 243.359 188.802,243.562 188.702,244.609 188.702 C 245.602 188.702,245.892 188.577,246.018 188.092 C 246.144 187.613,246.435 187.481,247.364 187.481 C 248.425 187.481,248.550 187.401,248.550 186.718 C 248.550 186.016,248.662 185.954,249.924 185.954 C 251.094 185.954,251.298 185.864,251.298 185.344 C 251.298 184.823,251.501 184.733,252.672 184.733 C 253.934 184.733,254.046 184.671,254.046 183.969 C 254.046 183.280,254.166 183.206,255.296 183.206 C 256.289 183.206,256.579 183.081,256.705 182.595 C 256.831 182.117,257.122 181.985,258.051 181.985 C 259.021 181.985,259.237 181.877,259.237 181.392 C 259.237 180.912,259.485 180.780,260.534 180.705 C 261.613 180.627,261.849 180.495,261.930 179.924 C 262.014 179.329,262.210 179.237,263.380 179.237 C 264.529 179.237,264.733 179.145,264.733 178.626 C 264.733 178.115,264.936 178.015,265.983 178.015 C 266.964 178.015,267.266 177.888,267.388 177.421 C 267.500 176.994,267.857 176.801,268.657 176.734 C 269.545 176.660,269.791 176.502,269.869 175.954 C 269.953 175.360,270.149 175.267,271.319 175.267 C 272.468 175.267,272.672 175.175,272.672 174.656 C 272.672 174.145,272.875 174.046,273.922 174.046 C 274.903 174.046,275.205 173.918,275.327 173.452 C 275.439 173.025,275.796 172.831,276.596 172.765 C 277.484 172.691,277.730 172.532,277.807 171.985 C 277.892 171.390,278.087 171.298,279.258 171.298 C 280.394 171.298,280.611 171.203,280.611 170.705 C 280.611 170.225,280.859 170.093,281.908 170.018 C 282.987 169.940,283.223 169.808,283.304 169.237 C 283.386 168.660,283.590 168.550,284.581 168.550 C 285.492 168.550,285.804 168.411,285.954 167.939 C 286.105 167.465,286.416 167.328,287.349 167.328 C 288.346 167.328,288.550 167.225,288.550 166.718 C 288.550 166.289,288.755 166.106,289.237 166.103 C 290.528 166.095,291.298 165.741,291.298 165.155 C 291.298 164.686,291.527 164.580,292.548 164.580 C 293.541 164.580,293.830 164.455,293.957 163.969 C 294.078 163.506,294.374 163.359,295.179 163.359 C 295.962 163.359,296.280 163.208,296.391 162.783 C 296.494 162.387,296.925 162.146,297.767 162.011 C 298.632 161.873,299.039 161.638,299.150 161.213 C 299.261 160.789,299.569 160.611,300.191 160.611 C 300.697 160.611,301.298 160.349,301.598 160.000 C 301.885 159.664,302.346 159.389,302.622 159.389 C 302.897 159.389,303.485 159.027,303.928 158.584 L 304.733 157.779 304.733 199.195 C 304.733 240.407,304.736 240.611,305.344 240.611 C 305.892 240.611,305.954 240.814,305.954 242.595 C 305.954 244.509,305.982 244.580,306.718 244.580 C 307.454 244.580,307.481 244.651,307.481 246.565 C 307.481 248.346,307.544 248.550,308.092 248.550 C 308.539 248.550,308.702 248.753,308.702 249.313 C 308.702 249.865,308.866 250.076,309.295 250.076 C 309.775 250.076,309.907 250.325,309.982 251.374 C 310.060 252.453,310.192 252.688,310.763 252.769 C 311.205 252.832,311.450 253.078,311.450 253.456 C 311.450 253.842,311.661 254.046,312.061 254.046 C 312.566 254.046,312.672 254.249,312.672 255.218 C 312.672 256.172,312.814 256.455,313.435 256.738 C 313.855 256.930,314.198 257.295,314.198 257.551 C 314.198 257.806,314.443 258.015,314.741 258.015 C 315.040 258.015,315.519 258.290,315.807 258.626 C 316.095 258.962,316.660 259.237,317.063 259.237 C 317.591 259.237,317.850 259.451,317.988 260.000 C 318.112 260.493,318.394 260.763,318.784 260.763 C 319.186 260.763,319.389 260.969,319.389 261.374 C 319.389 261.894,319.593 261.985,320.763 261.985 C 321.934 261.985,322.137 262.075,322.137 262.595 C 322.137 263.103,322.341 263.206,323.338 263.206 C 324.350 263.206,324.553 263.314,324.635 263.893 C 324.716 264.461,324.952 264.596,325.999 264.673 C 326.952 264.742,327.304 264.912,327.421 265.360 C 327.560 265.890,327.857 265.954,330.179 265.954 C 332.646 265.954,332.787 265.990,332.880 266.641 C 332.974 267.307,333.096 267.331,336.837 267.413 C 340.418 267.493,340.708 267.543,340.858 268.116 C 341.001 268.662,341.229 268.723,342.800 268.642 L 344.580 268.550 344.580 257.405 L 344.580 246.260 341.318 246.173 C 338.212 246.091,338.050 246.054,337.959 245.410 C 337.879 244.850,337.637 244.717,336.565 244.639 C 335.516 244.563,335.267 244.431,335.267 243.952 C 335.267 243.554,335.057 243.359,334.628 243.359 C 334.245 243.359,333.924 243.113,333.829 242.748 C 333.704 242.270,333.412 242.137,332.483 242.137 C 331.422 242.137,331.298 242.057,331.298 241.374 C 331.298 240.814,331.135 240.611,330.687 240.611 C 330.280 240.611,330.076 240.407,330.076 240.000 C 330.076 239.552,329.873 239.389,329.313 239.389 C 328.612 239.389,328.550 239.277,328.550 238.015 C 328.550 236.845,328.459 236.641,327.939 236.641 C 327.428 236.641,327.328 236.438,327.328 235.391 C 327.328 234.398,327.203 234.108,326.718 233.982 C 326.110 233.823,326.107 233.565,326.107 189.888 L 326.107 145.954 327.204 145.954 C 328.034 145.954,328.339 145.810,328.457 145.361 C 328.542 145.034,328.907 144.725,329.268 144.674 C 329.678 144.615,329.960 144.323,330.021 143.893 C 330.104 143.314,330.307 143.206,331.319 143.206 C 332.316 143.206,332.519 143.103,332.519 142.595 C 332.519 142.075,332.723 141.985,333.893 141.985 C 335.050 141.985,335.267 141.891,335.267 141.392 C 335.267 140.912,335.516 140.780,336.565 140.705 C 337.644 140.627,337.879 140.495,337.960 139.924 C 338.042 139.348,338.247 139.237,339.222 139.237 C 340.130 139.237,340.422 139.102,340.546 138.626 C 340.642 138.261,340.963 138.015,341.345 138.015 C 341.775 138.015,341.985 137.821,341.985 137.422 C 341.985 136.943,342.233 136.811,343.282 136.735 C 344.361 136.657,344.597 136.525,344.678 135.954 C 344.760 135.372,344.962 135.267,346.004 135.267 C 346.976 135.267,347.266 135.140,347.392 134.656 C 347.518 134.178,347.809 134.046,348.738 134.046 C 349.799 134.046,349.924 133.966,349.924 133.282 C 349.924 132.581,350.036 132.519,351.298 132.519 C 352.468 132.519,352.672 132.429,352.672 131.908 C 352.672 131.501,352.875 131.298,353.282 131.298 C 353.690 131.298,353.893 131.094,353.893 130.687 C 353.893 130.167,354.097 130.076,355.267 130.076 C 356.529 130.076,356.641 130.014,356.641 129.313 C 356.641 128.612,356.753 128.550,358.015 128.550 C 359.186 128.550,359.389 128.459,359.389 127.939 C 359.389 127.428,359.593 127.328,360.639 127.328 C 361.621 127.328,361.923 127.201,362.045 126.734 C 362.156 126.307,362.514 126.114,363.314 126.047 C 364.202 125.973,364.447 125.815,364.525 125.267 C 364.607 124.690,364.811 124.580,365.802 124.580 C 366.714 124.580,367.026 124.441,367.176 123.969 C 367.282 123.634,367.635 123.359,367.960 123.359 C 368.346 123.359,368.550 123.148,368.550 122.748 C 368.550 122.228,368.753 122.137,369.924 122.137 C 371.186 122.137,371.298 122.075,371.298 121.374 C 371.298 120.673,371.410 120.611,372.672 120.611 C 373.842 120.611,374.046 120.520,374.046 120.000 C 374.046 119.492,374.249 119.389,375.261 119.389 C 376.303 119.389,376.504 119.280,376.669 118.626 C 376.832 117.975,377.036 117.863,378.048 117.863 C 379.033 117.863,379.237 117.758,379.237 117.252 C 379.237 116.804,379.440 116.641,380.000 116.641 C 380.560 116.641,380.763 116.478,380.763 116.031 C 380.763 115.623,380.967 115.420,381.374 115.420 C 381.894 115.420,381.985 115.216,381.985 114.046 C 381.985 112.875,381.894 112.672,381.374 112.672 C 380.967 112.672,380.763 112.468,380.763 112.061 C 380.763 111.541,380.560 111.450,379.389 111.450 C 378.127 111.450,378.015 111.388,378.015 110.687 C 378.015 110.267,377.912 109.940,377.786 109.960 C 377.064 110.074,376.489 109.869,376.489 109.498 C 376.489 109.012,375.840 108.702,374.820 108.702 C 374.374 108.702,374.059 108.479,373.957 108.092 C 373.831 107.609,373.541 107.481,372.569 107.481 C 371.527 107.481,371.325 107.376,371.243 106.794 C 371.161 106.223,370.926 106.091,369.847 106.013 C 368.798 105.937,368.550 105.805,368.550 105.326 C 368.550 104.838,368.334 104.733,367.328 104.733 C 366.327 104.733,366.107 104.627,366.107 104.146 C 366.107 103.562,364.881 103.064,363.944 103.268 C 363.707 103.319,363.480 103.061,363.421 102.672 C 363.331 102.078,363.132 101.985,361.963 101.985 C 360.814 101.985,360.611 101.893,360.611 101.374 C 360.611 100.854,360.407 100.763,359.237 100.763 C 357.975 100.763,357.863 100.701,357.863 100.000 C 357.863 99.313,357.740 99.237,356.641 99.237 C 355.623 99.237,355.420 99.135,355.420 98.626 C 355.420 98.106,355.216 98.015,354.046 98.015 C 352.875 98.015,352.672 97.925,352.672 97.405 C 352.672 96.957,352.468 96.794,351.908 96.794 C 351.360 96.794,351.145 96.629,351.145 96.210 C 351.145 95.769,350.853 95.577,349.954 95.425 C 349.137 95.287,348.714 95.038,348.608 94.635 C 348.488 94.174,348.182 94.046,347.204 94.046 C 346.158 94.046,345.954 93.946,345.954 93.435 C 345.954 92.915,345.751 92.824,344.580 92.824 C 343.318 92.824,343.206 92.762,343.206 92.061 C 343.206 91.378,343.082 91.298,342.020 91.298 C 341.091 91.298,340.800 91.165,340.675 90.687 C 340.549 90.204,340.258 90.076,339.286 90.076 C 338.245 90.076,338.043 89.972,337.960 89.389 C 337.891 88.902,337.641 88.689,337.099 88.656 C 336.679 88.631,336.095 88.596,335.802 88.580 C 335.481 88.562,335.267 88.306,335.267 87.939 C 335.267 87.419,335.064 87.328,333.893 87.328 C 332.723 87.328,332.519 87.238,332.519 86.718 C 332.519 86.210,332.316 86.107,331.319 86.107 C 330.307 86.107,330.104 85.999,330.021 85.420 C 329.940 84.849,329.705 84.717,328.626 84.639 C 327.577 84.563,327.328 84.431,327.328 83.952 C 327.328 83.531,327.118 83.359,326.600 83.359 C 326.130 83.359,325.816 83.143,325.713 82.748 C 325.591 82.280,325.297 82.137,324.456 82.137 C 323.583 82.137,323.359 82.019,323.359 81.559 C 323.359 80.901,322.790 80.611,321.502 80.611 C 320.814 80.611,320.611 80.471,320.611 80.000 C 320.611 79.480,320.407 79.389,319.237 79.389 C 318.097 79.389,317.863 79.292,317.863 78.818 C 317.863 78.390,317.565 78.198,316.677 78.056 C 315.842 77.923,315.445 77.686,315.332 77.254 C 315.204 76.766,314.916 76.641,313.922 76.641 C 312.875 76.641,312.672 76.542,312.672 76.031 C 312.672 75.512,312.468 75.420,311.319 75.420 C 310.149 75.420,309.953 75.327,309.869 74.733 C 309.815 74.355,309.565 74.027,309.313 74.005 C 309.061 73.982,308.562 73.948,308.204 73.928 C 307.828 73.908,307.485 73.635,307.392 73.282 C 307.266 72.797,306.976 72.672,305.983 72.672 C 304.936 72.672,304.733 72.572,304.733 72.061 C 304.733 71.541,304.529 71.450,303.359 71.450 C 302.097 71.450,301.985 71.388,301.985 70.687 C 301.985 70.267,301.882 69.940,301.756 69.960 C 301.003 70.079,300.509 69.848,300.370 69.313 C 300.248 68.850,299.953 68.702,299.148 68.702 C 298.343 68.702,298.048 68.555,297.927 68.092 C 297.800 67.609,297.510 67.481,296.538 67.481 C 295.497 67.481,295.295 67.376,295.212 66.794 C 295.131 66.223,294.896 66.091,293.817 66.013 C 292.768 65.937,292.519 65.805,292.519 65.326 C 292.519 64.838,292.303 64.733,291.298 64.733 C 290.297 64.733,290.076 64.627,290.076 64.146 C 290.076 63.562,288.850 63.064,287.914 63.268 C 287.677 63.319,287.450 63.061,287.391 62.672 C 287.300 62.078,287.101 61.985,285.933 61.985 C 284.784 61.985,284.580 61.893,284.580 61.374 C 284.580 60.867,284.377 60.763,283.380 60.763 C 282.368 60.763,282.165 60.656,282.082 60.076 C 282.001 59.505,281.766 59.373,280.687 59.295 C 279.638 59.220,279.389 59.088,279.389 58.608 C 279.389 58.109,279.172 58.015,278.015 58.015 C 276.845 58.015,276.641 57.925,276.641 57.405 C 276.641 56.957,276.438 56.794,275.878 56.794 C 275.330 56.794,275.115 56.629,275.115 56.210 C 275.115 55.769,274.823 55.577,273.923 55.425 C 273.107 55.287,272.683 55.038,272.578 54.635 C 272.457 54.174,272.151 54.046,271.174 54.046 C 270.127 54.046,269.924 53.946,269.924 53.435 C 269.924 52.940,269.720 52.824,268.848 52.824 C 267.998 52.824,267.701 52.665,267.425 52.061 C 267.142 51.440,266.859 51.298,265.905 51.298 C 264.936 51.298,264.733 51.192,264.733 50.687 C 264.733 50.168,264.529 50.076,263.380 50.076 C 262.210 50.076,262.014 49.984,261.930 49.389 C 261.835 48.721,261.699 48.666,259.924 48.582 C 259.451 48.560,259.237 48.359,259.237 47.939 C 259.237 47.430,259.033 47.328,258.015 47.328 C 256.997 47.328,256.794 47.226,256.794 46.718 C 256.794 46.199,256.590 46.107,255.441 46.107 C 254.271 46.107,254.075 46.014,253.991 45.420 C 253.910 44.849,253.674 44.717,252.595 44.639 C 251.546 44.563,251.298 44.431,251.298 43.952 C 251.298 43.523,251.087 43.359,250.534 43.359 C 249.975 43.359,249.771 43.196,249.771 42.748 C 249.771 42.241,249.567 42.137,248.571 42.137 C 247.559 42.137,247.355 42.030,247.273 41.450 C 247.192 40.879,246.957 40.748,245.878 40.669 C 244.829 40.594,244.580 40.462,244.580 39.982 C 244.580 39.497,244.365 39.389,243.394 39.389 C 242.471 39.389,242.174 39.256,242.051 38.787 C 241.940 38.362,241.533 38.127,240.668 37.989 C 239.826 37.854,239.395 37.613,239.292 37.217 C 239.175 36.771,238.859 36.641,237.891 36.641 C 236.845 36.641,236.641 36.542,236.641 36.031 C 236.641 35.510,236.438 35.420,235.267 35.420 C 234.005 35.420,233.893 35.358,233.893 34.656 C 233.893 33.973,233.769 33.893,232.707 33.893 C 231.778 33.893,231.487 33.761,231.362 33.282 C 231.235 32.797,230.945 32.672,229.952 32.672 C 228.906 32.672,228.702 32.572,228.702 32.061 C 228.702 31.541,228.499 31.450,227.328 31.450 C 226.066 31.450,225.954 31.388,225.954 30.687 C 225.954 30.086,225.799 29.924,225.226 29.924 C 224.756 29.924,224.442 29.708,224.339 29.313 C 224.217 28.845,223.923 28.702,223.082 28.702 C 222.188 28.702,221.985 28.589,221.985 28.092 C 221.985 27.571,221.781 27.481,220.611 27.481 C 219.349 27.481,219.237 27.419,219.237 26.718 C 219.237 26.034,219.112 25.954,218.051 25.954 C 217.122 25.954,216.831 25.822,216.705 25.344 C 216.579 24.858,216.289 24.733,215.296 24.733 C 214.253 24.733,214.046 24.632,214.046 24.128 C 214.046 23.569,213.118 23.075,212.347 23.223 C 211.634 23.361,211.298 23.159,211.298 22.595 C 211.298 22.075,211.094 21.985,209.924 21.985 C 208.753 21.985,208.550 21.894,208.550 21.374 C 208.550 20.867,208.346 20.763,207.349 20.763 C 206.337 20.763,206.134 20.656,206.052 20.076 C 205.952 19.376,205.876 19.342,204.275 19.275 C 203.575 19.246,203.359 19.092,203.359 18.626 C 203.359 18.052,203.155 18.015,200.000 18.015 C 196.845 18.015,196.641 18.052,196.641 18.626 M168.847 76.414 C 169.262 76.707,169.908 76.947,170.283 76.947 C 171.077 76.947,172.519 77.551,172.519 77.885 C 172.519 78.011,173.065 78.206,173.731 78.319 C 174.398 78.432,175.279 78.787,175.688 79.109 C 176.097 79.431,176.588 79.695,176.779 79.695 C 177.205 79.695,180.117 81.824,181.382 83.061 C 181.893 83.561,182.444 83.969,182.606 83.969 C 182.768 83.969,182.901 84.169,182.901 84.412 C 182.901 84.656,183.091 84.965,183.323 85.099 C 183.556 85.234,184.263 86.031,184.894 86.870 C 185.525 87.710,186.227 88.603,186.454 88.855 C 187.748 90.290,188.381 91.286,188.231 91.649 C 188.038 92.118,185.592 93.740,185.077 93.740 C 184.891 93.740,184.566 94.015,184.357 94.351 C 184.147 94.687,183.826 94.962,183.644 94.962 C 183.462 94.962,182.990 95.305,182.595 95.725 C 182.201 96.145,181.695 96.489,181.471 96.489 C 181.246 96.489,180.827 96.763,180.540 97.099 C 180.252 97.435,179.829 97.710,179.599 97.710 C 179.370 97.710,178.954 97.979,178.675 98.308 C 177.957 99.156,176.511 99.247,176.073 98.473 C 175.882 98.137,175.417 97.425,175.039 96.891 C 174.661 96.356,174.351 95.794,174.351 95.642 C 174.351 95.219,171.325 92.568,170.581 92.340 C 170.219 92.229,169.678 91.880,169.377 91.565 C 169.077 91.250,168.580 90.992,168.274 90.992 C 167.967 90.992,167.375 90.724,166.959 90.397 C 165.308 89.098,154.121 88.951,152.676 90.209 C 152.422 90.431,151.681 90.800,151.030 91.030 C 150.379 91.260,149.781 91.620,149.700 91.831 C 149.619 92.041,149.351 92.214,149.105 92.214 C 148.042 92.214,143.600 97.174,143.046 98.979 C 142.925 99.373,142.685 99.871,142.512 100.086 C 141.744 101.046,140.693 104.796,140.441 107.481 C 140.290 109.076,140.098 110.656,140.013 110.992 C 139.746 112.049,140.473 118.586,140.938 119.304 C 141.179 119.677,141.523 120.665,141.702 121.498 C 141.881 122.332,142.223 123.177,142.464 123.376 C 142.704 123.576,142.901 123.976,142.901 124.265 C 142.901 124.554,143.244 125.190,143.664 125.678 C 144.083 126.166,144.427 126.735,144.427 126.944 C 144.427 127.152,144.702 127.495,145.038 127.704 C 145.374 127.914,145.652 128.225,145.655 128.394 C 145.659 128.564,146.148 129.115,146.742 129.618 C 147.337 130.122,148.052 130.775,148.331 131.069 C 148.610 131.363,149.003 131.603,149.205 131.603 C 149.406 131.603,149.980 131.947,150.479 132.366 C 150.978 132.786,151.654 133.130,151.982 133.130 C 152.310 133.130,152.895 133.405,153.282 133.740 C 153.670 134.076,154.000 134.354,154.016 134.357 C 157.534 135.001,166.166 134.624,166.681 133.804 C 166.785 133.639,167.383 133.362,168.010 133.190 C 168.638 133.017,169.515 132.590,169.960 132.240 C 170.405 131.890,170.869 131.603,170.991 131.603 C 171.418 131.603,174.351 128.753,174.351 128.338 C 174.351 128.108,174.540 127.847,174.771 127.759 C 175.002 127.670,175.434 127.059,175.731 126.400 C 176.516 124.658,178.865 124.403,180.126 125.922 C 180.350 126.192,180.749 126.412,181.013 126.412 C 181.278 126.412,181.982 126.725,182.579 127.107 C 184.471 128.318,184.859 128.535,186.031 129.039 C 186.660 129.310,187.176 129.644,187.176 129.780 C 187.176 129.917,187.644 130.184,188.217 130.373 C 189.500 130.796,189.763 131.378,188.987 132.080 C 188.662 132.373,188.394 132.764,188.391 132.948 C 188.366 134.482,181.054 142.096,178.613 143.131 C 178.116 143.341,177.710 143.628,177.710 143.769 C 177.710 143.910,177.127 144.200,176.415 144.414 C 175.702 144.627,174.847 144.992,174.515 145.225 C 174.182 145.458,173.561 145.649,173.134 145.649 C 172.707 145.649,171.878 145.906,171.292 146.220 C 170.705 146.534,169.608 146.890,168.853 147.011 C 168.099 147.132,166.552 147.507,165.417 147.844 C 162.685 148.657,153.617 148.582,152.327 147.736 C 151.901 147.457,150.904 147.131,150.112 147.012 C 149.320 146.894,148.486 146.611,148.259 146.384 C 148.032 146.157,147.263 145.840,146.551 145.680 C 145.838 145.519,145.172 145.267,145.070 145.120 C 144.969 144.972,144.439 144.670,143.893 144.449 C 143.347 144.229,142.901 143.921,142.901 143.765 C 142.901 143.609,142.523 143.315,142.061 143.111 C 140.384 142.372,138.722 141.058,135.878 138.226 C 132.770 135.131,132.622 134.966,131.738 133.580 C 131.420 133.080,131.074 132.603,130.970 132.519 C 130.732 132.327,129.939 130.862,129.317 129.466 C 129.055 128.878,128.706 128.191,128.541 127.939 C 128.377 127.687,128.105 127.137,127.936 126.718 C 127.767 126.298,127.421 125.584,127.166 125.131 C 126.912 124.679,126.558 123.524,126.381 122.565 C 126.203 121.605,125.843 120.492,125.580 120.090 C 125.181 119.481,124.603 114.444,124.588 111.450 C 124.576 108.809,125.216 103.366,125.610 102.764 C 125.871 102.366,126.222 101.185,126.391 100.140 C 126.559 99.094,126.891 98.017,127.129 97.745 C 127.367 97.474,127.663 96.908,127.786 96.489 C 127.910 96.069,128.185 95.519,128.397 95.267 C 128.609 95.015,128.881 94.466,129.002 94.046 C 129.287 93.053,130.548 91.185,131.981 89.633 C 132.609 88.953,133.124 88.276,133.126 88.127 C 133.131 87.745,136.082 84.885,136.471 84.885 C 136.649 84.885,136.794 84.735,136.794 84.550 C 136.794 83.811,142.293 79.695,143.281 79.695 C 143.501 79.695,143.916 79.420,144.204 79.084 C 144.492 78.748,145.062 78.473,145.471 78.473 C 145.881 78.473,146.421 78.268,146.673 78.016 C 147.281 77.408,148.544 76.947,149.601 76.947 C 150.073 76.947,150.624 76.749,150.824 76.507 C 151.634 75.531,167.479 75.450,168.847 76.414 M247.176 76.225 C 247.847 76.485,249.290 76.832,250.382 76.997 C 251.473 77.162,252.795 77.562,253.318 77.885 C 253.842 78.209,254.554 78.473,254.900 78.473 C 255.246 78.473,255.722 78.667,255.959 78.903 C 256.195 79.140,256.858 79.471,257.431 79.640 C 258.004 79.809,259.229 80.369,260.153 80.885 C 261.076 81.400,262.176 81.961,262.595 82.132 C 263.015 82.303,263.565 82.559,263.817 82.702 C 264.535 83.110,264.555 84.564,263.855 85.510 C 263.513 85.973,263.145 86.703,263.037 87.132 C 262.929 87.562,262.648 88.074,262.413 88.269 C 262.177 88.465,261.985 88.795,261.985 89.002 C 261.985 89.210,261.641 89.887,261.221 90.505 C 260.802 91.124,260.458 91.823,260.458 92.059 C 260.458 92.295,260.115 92.858,259.695 93.311 C 259.275 93.764,258.927 94.287,258.922 94.472 C 258.900 95.206,258.069 95.951,257.654 95.608 C 256.056 94.289,255.256 93.714,254.623 93.428 C 254.221 93.247,253.344 92.765,252.672 92.358 C 251.200 91.466,250.163 90.993,249.675 90.991 C 249.476 90.991,248.884 90.729,248.360 90.409 C 247.832 90.087,246.470 89.728,245.307 89.605 C 244.151 89.482,242.674 89.194,242.023 88.965 C 240.497 88.429,237.914 88.433,236.602 88.974 C 236.036 89.207,234.835 89.497,233.934 89.618 C 228.609 90.333,226.545 96.657,230.465 100.244 C 231.053 100.781,231.752 101.462,232.018 101.756 C 232.284 102.050,232.782 102.290,233.124 102.290 C 233.466 102.290,234.363 102.614,235.117 103.010 C 235.871 103.406,237.113 103.811,237.876 103.911 C 238.639 104.011,239.670 104.305,240.166 104.564 C 240.663 104.823,241.624 105.035,242.302 105.036 C 242.980 105.037,244.053 105.302,244.686 105.625 C 245.319 105.948,246.413 106.305,247.117 106.418 C 247.821 106.531,248.705 106.819,249.082 107.058 C 249.458 107.297,250.420 107.579,251.219 107.686 C 252.018 107.792,252.987 108.124,253.373 108.422 C 253.759 108.721,254.490 109.057,254.997 109.168 C 255.504 109.279,255.988 109.551,256.073 109.772 C 256.158 109.993,256.552 110.255,256.949 110.355 C 257.962 110.609,259.656 111.709,261.105 113.053 C 261.784 113.683,262.466 114.198,262.620 114.198 C 262.775 114.198,262.901 114.316,262.901 114.459 C 262.901 114.603,263.210 115.080,263.588 115.520 C 265.131 117.317,265.565 118.077,265.762 119.334 C 265.875 120.060,266.157 120.953,266.388 121.319 C 267.325 122.805,267.319 132.332,266.380 133.271 C 266.155 133.496,265.881 134.246,265.770 134.938 C 265.659 135.630,265.071 136.915,264.464 137.794 C 263.856 138.672,263.158 139.780,262.912 140.255 C 262.353 141.337,259.317 143.751,257.099 144.878 C 253.675 146.617,253.260 146.798,252.214 147.007 C 251.626 147.125,250.664 147.449,250.076 147.727 C 248.425 148.509,233.424 148.676,231.450 147.934 C 230.695 147.650,228.977 147.245,227.634 147.035 C 226.290 146.824,224.779 146.427,224.275 146.152 C 223.771 145.877,223.080 145.652,222.740 145.651 C 222.399 145.650,221.846 145.456,221.509 145.221 C 221.173 144.985,220.284 144.629,219.533 144.429 C 218.782 144.229,217.962 143.889,217.710 143.674 C 217.458 143.459,216.737 143.118,216.107 142.916 C 215.477 142.713,214.962 142.442,214.962 142.313 C 214.962 142.183,214.447 141.847,213.817 141.565 C 210.889 140.256,210.382 139.873,210.382 138.978 C 210.382 138.115,212.100 134.290,212.574 134.097 C 212.712 134.041,212.824 133.835,212.823 133.639 C 212.821 133.159,215.950 126.929,216.336 126.646 C 216.815 126.294,217.066 126.367,217.628 127.023 C 217.916 127.359,218.308 127.634,218.500 127.634 C 218.692 127.634,219.177 127.890,219.577 128.203 C 219.978 128.516,221.125 129.209,222.127 129.742 C 223.129 130.275,224.159 130.900,224.417 131.131 C 224.675 131.362,225.408 131.648,226.046 131.767 C 226.684 131.885,227.407 132.184,227.654 132.430 C 227.900 132.677,228.853 132.980,229.771 133.105 C 230.689 133.230,231.683 133.543,231.980 133.801 C 233.401 135.038,247.939 134.963,247.939 133.719 C 247.939 133.563,248.093 133.435,248.280 133.435 C 248.866 133.435,250.330 131.516,250.521 130.498 C 250.621 129.964,250.906 129.359,251.153 129.154 C 251.811 128.608,250.704 125.027,249.759 124.643 C 249.637 124.594,248.759 123.948,247.807 123.209 C 246.600 122.272,245.660 121.802,244.702 121.659 C 243.947 121.546,243.143 121.267,242.916 121.040 C 242.689 120.813,241.906 120.536,241.175 120.424 C 240.445 120.311,239.366 119.980,238.779 119.688 C 238.191 119.396,237.092 119.057,236.336 118.935 C 235.580 118.812,234.756 118.536,234.504 118.320 C 234.252 118.105,233.290 117.832,232.366 117.714 C 231.443 117.596,230.412 117.329,230.076 117.120 C 229.740 116.912,228.779 116.571,227.939 116.363 C 227.099 116.155,226.206 115.804,225.954 115.584 C 225.702 115.363,225.059 115.090,224.525 114.976 C 223.991 114.863,223.390 114.573,223.190 114.332 C 222.990 114.090,222.663 113.893,222.465 113.893 C 222.138 113.893,221.454 113.451,219.277 111.834 C 217.902 110.813,215.573 108.392,215.573 107.985 C 215.573 107.760,215.298 107.327,214.962 107.023 C 214.626 106.719,214.351 106.249,214.351 105.979 C 214.351 105.708,214.076 104.974,213.740 104.348 C 213.199 103.338,213.130 102.625,213.130 98.088 C 213.130 93.551,213.199 92.838,213.740 91.829 C 214.076 91.202,214.351 90.225,214.351 89.657 C 214.351 89.089,214.565 88.447,214.827 88.230 C 215.088 88.013,215.492 87.380,215.724 86.825 C 215.956 86.270,216.326 85.602,216.546 85.341 C 219.020 82.407,223.365 78.834,225.083 78.319 C 225.478 78.201,226.121 77.903,226.511 77.656 C 226.902 77.410,227.864 77.092,228.649 76.950 C 229.434 76.808,230.626 76.481,231.298 76.222 C 233.076 75.538,245.406 75.540,247.176 76.225 M112.672 211.937 C 112.672 234.915,112.679 235.173,113.282 235.331 C 113.761 235.457,113.900 235.763,113.926 236.753 C 113.986 239.115,114.023 239.233,114.733 239.334 C 115.315 239.417,115.420 239.619,115.420 240.661 C 115.420 241.632,115.547 241.923,116.031 242.049 C 116.509 242.174,116.641 242.465,116.641 243.394 C 116.641 244.463,116.718 244.580,117.423 244.580 C 117.857 244.580,118.122 244.714,118.018 244.880 C 117.627 245.514,118.215 247.328,118.813 247.328 C 119.186 247.328,119.389 247.544,119.389 247.939 C 119.389 248.346,119.593 248.550,120.000 248.550 C 120.448 248.550,120.611 248.753,120.611 249.313 C 120.611 249.924,120.763 250.076,121.374 250.076 C 121.934 250.076,122.137 250.239,122.137 250.687 C 122.137 251.094,122.341 251.298,122.748 251.298 C 123.196 251.298,123.359 251.501,123.359 252.061 C 123.359 252.621,123.522 252.824,123.969 252.824 C 124.377 252.824,124.580 253.028,124.580 253.435 C 124.580 253.883,124.784 254.046,125.344 254.046 C 125.903 254.046,126.107 254.209,126.107 254.656 C 126.107 255.056,126.310 255.267,126.696 255.267 C 127.075 255.267,127.321 255.513,127.383 255.954 C 127.464 256.525,127.700 256.657,128.779 256.735 C 129.828 256.811,130.076 256.943,130.076 257.422 C 130.076 257.922,130.293 258.015,131.450 258.015 C 132.621 258.015,132.824 258.106,132.824 258.626 C 132.824 259.133,133.028 259.237,134.025 259.237 C 135.037 259.237,135.240 259.344,135.322 259.924 C 135.403 260.495,135.639 260.627,136.718 260.705 C 137.767 260.780,138.015 260.912,138.015 261.392 C 138.015 261.918,138.238 261.985,140.000 261.985 C 141.781 261.985,141.985 262.047,141.985 262.595 C 141.985 263.116,142.188 263.206,143.359 263.206 C 144.621 263.206,144.733 263.268,144.733 263.969 C 144.733 264.671,144.845 264.733,146.107 264.733 C 147.277 264.733,147.481 264.823,147.481 265.344 C 147.481 265.892,147.684 265.954,149.466 265.954 C 151.379 265.954,151.450 265.982,151.450 266.718 C 151.450 267.401,151.575 267.481,152.636 267.481 C 153.565 267.481,153.856 267.613,153.982 268.092 C 154.108 268.573,154.398 268.702,155.356 268.702 C 156.313 268.702,156.604 268.831,156.730 269.313 C 156.867 269.838,157.146 269.924,158.729 269.924 C 160.404 269.924,160.577 269.985,160.666 270.611 C 160.747 271.182,160.982 271.314,162.061 271.392 C 163.110 271.468,163.359 271.599,163.359 272.079 C 163.359 272.578,163.576 272.672,164.733 272.672 C 165.903 272.672,166.107 272.762,166.107 273.282 C 166.107 273.830,166.310 273.893,168.092 273.893 C 170.005 273.893,170.076 273.921,170.076 274.656 C 170.076 275.358,170.188 275.420,171.450 275.420 C 172.621 275.420,172.824 275.510,172.824 276.031 C 172.824 276.538,173.028 276.641,174.025 276.641 C 174.958 276.641,175.269 276.778,175.420 277.252 C 175.585 277.771,175.882 277.863,177.404 277.863 C 179.028 277.863,179.203 277.926,179.292 278.550 C 179.373 279.121,179.608 279.252,180.687 279.331 C 181.736 279.406,181.985 279.538,181.985 280.018 C 181.985 280.515,182.202 280.611,183.323 280.611 C 184.368 280.611,184.694 280.734,184.809 281.175 C 184.960 281.753,186.164 282.137,187.824 282.137 C 188.499 282.137,188.702 282.279,188.702 282.748 C 188.702 283.268,188.906 283.359,190.076 283.359 C 191.247 283.359,191.450 283.449,191.450 283.969 C 191.450 284.477,191.654 284.580,192.658 284.580 C 193.542 284.580,194.072 284.787,194.637 285.352 C 195.773 286.488,204.362 286.415,204.525 285.267 C 204.609 284.673,204.805 284.580,205.975 284.580 C 207.125 284.580,207.328 284.488,207.328 283.969 C 207.328 283.458,207.532 283.359,208.578 283.359 C 209.560 283.359,209.862 283.231,209.984 282.765 C 210.095 282.338,210.453 282.144,211.253 282.078 C 212.141 282.004,212.386 281.845,212.464 281.298 C 212.548 280.703,212.744 280.611,213.914 280.611 C 215.050 280.611,215.267 280.516,215.267 280.018 C 215.267 279.538,215.516 279.406,216.565 279.331 C 217.644 279.252,217.879 279.121,217.960 278.550 C 218.045 277.955,218.240 277.863,219.411 277.863 C 220.560 277.863,220.763 277.771,220.763 277.252 C 220.763 276.743,220.967 276.641,221.985 276.641 C 223.003 276.641,223.206 276.539,223.206 276.031 C 223.206 275.510,223.410 275.420,224.580 275.420 C 225.842 275.420,225.954 275.358,225.954 274.656 C 225.954 273.955,226.066 273.893,227.328 273.893 C 228.499 273.893,228.702 273.803,228.702 273.282 C 228.702 272.771,228.906 272.672,229.952 272.672 C 230.945 272.672,231.235 272.546,231.362 272.061 C 231.487 271.583,231.778 271.450,232.707 271.450 C 233.769 271.450,233.893 271.370,233.893 270.687 C 233.893 269.986,234.005 269.924,235.267 269.924 C 236.438 269.924,236.641 269.833,236.641 269.313 C 236.641 268.793,236.845 268.702,238.015 268.702 C 239.172 268.702,239.389 268.609,239.389 268.109 C 239.389 267.630,239.638 267.498,240.687 267.422 C 241.766 267.344,242.001 267.212,242.082 266.641 C 242.165 266.062,242.368 265.954,243.380 265.954 C 244.377 265.954,244.580 265.851,244.580 265.344 C 244.580 264.823,244.784 264.733,245.954 264.733 C 247.216 264.733,247.328 264.671,247.328 263.969 C 247.328 263.268,247.440 263.206,248.702 263.206 C 249.873 263.206,250.076 263.116,250.076 262.595 C 250.076 262.087,250.280 261.985,251.298 261.985 C 252.316 261.985,252.519 261.883,252.519 261.374 C 252.519 260.854,252.723 260.763,253.893 260.763 C 255.155 260.763,255.267 260.701,255.267 260.000 C 255.267 259.299,255.379 259.237,256.641 259.237 C 257.812 259.237,258.015 259.146,258.015 258.626 C 258.015 258.115,258.219 258.015,259.265 258.015 C 260.258 258.015,260.548 257.890,260.675 257.405 C 260.776 257.017,261.091 256.794,261.537 256.794 C 262.641 256.794,263.206 256.473,263.206 255.845 C 263.206 255.389,263.430 255.267,264.264 255.267 C 265.010 255.267,265.419 255.087,265.649 254.656 C 265.829 254.321,266.259 254.046,266.604 254.046 C 266.976 254.046,267.298 253.796,267.392 253.435 C 267.494 253.048,267.809 252.824,268.255 252.824 C 269.359 252.824,269.924 252.503,269.924 251.876 C 269.924 251.493,270.139 251.298,270.563 251.298 C 270.945 251.298,271.266 251.052,271.362 250.687 C 271.450 250.349,271.778 250.076,272.097 250.076 C 272.507 250.076,272.672 249.857,272.672 249.313 C 272.672 248.623,272.792 248.550,273.922 248.550 C 274.915 248.550,275.204 248.424,275.331 247.939 C 275.420 247.601,275.748 247.328,276.066 247.328 C 276.438 247.328,276.641 247.112,276.641 246.718 C 276.641 246.310,276.845 246.107,277.252 246.107 C 277.700 246.107,277.863 245.903,277.863 245.344 C 277.863 244.733,278.015 244.580,278.626 244.580 C 279.186 244.580,279.389 244.417,279.389 243.969 C 279.389 243.562,279.593 243.359,280.000 243.359 C 280.400 243.359,280.611 243.155,280.611 242.769 C 280.611 242.391,280.856 242.145,281.298 242.082 C 281.739 242.020,282.020 241.739,282.082 241.298 C 282.145 240.856,282.391 240.611,282.769 240.611 C 283.155 240.611,283.359 240.400,283.359 240.000 C 283.359 239.593,283.562 239.389,283.969 239.389 C 284.490 239.389,284.580 239.186,284.580 238.015 C 284.580 236.753,284.642 236.641,285.344 236.641 C 286.045 236.641,286.107 236.529,286.107 235.267 C 286.107 234.097,286.197 233.893,286.718 233.893 C 287.323 233.893,287.328 233.690,287.328 211.298 L 287.328 188.702 286.078 188.702 C 285.085 188.702,284.796 188.828,284.669 189.313 C 284.521 189.878,283.748 190.106,282.519 189.946 C 282.301 189.918,282.137 190.229,282.137 190.674 C 282.137 191.391,282.032 191.450,280.763 191.450 C 279.593 191.450,279.389 191.541,279.389 192.061 C 279.389 192.581,279.186 192.672,278.015 192.672 C 276.858 192.672,276.641 192.765,276.641 193.265 C 276.641 193.744,276.393 193.876,275.344 193.952 C 274.281 194.029,274.046 194.156,274.046 194.656 C 274.046 195.157,273.811 195.284,272.748 195.361 C 271.699 195.437,271.450 195.569,271.450 196.048 C 271.450 196.547,271.233 196.641,270.076 196.641 C 268.906 196.641,268.702 196.732,268.702 197.252 C 268.702 197.680,268.497 197.864,268.015 197.867 C 266.724 197.875,265.954 198.228,265.954 198.814 C 265.954 199.284,265.725 199.389,264.704 199.389 C 263.711 199.389,263.421 199.515,263.295 200.000 C 263.169 200.478,262.878 200.611,261.949 200.611 C 260.888 200.611,260.763 200.691,260.763 201.374 C 260.763 202.075,260.651 202.137,259.389 202.137 C 258.219 202.137,258.015 202.228,258.015 202.748 C 258.015 203.277,257.812 203.359,256.500 203.359 C 255.403 203.359,254.835 203.520,254.439 203.943 C 254.139 204.264,253.383 204.622,252.759 204.738 C 252.034 204.873,251.557 205.159,251.440 205.528 C 251.301 205.967,250.966 206.107,250.056 206.107 C 249.059 206.107,248.855 206.210,248.855 206.718 C 248.855 207.227,248.651 207.328,247.624 207.328 C 246.630 207.328,246.344 207.459,246.141 208.008 C 246.003 208.382,245.629 208.702,245.311 208.719 C 243.501 208.817,243.359 208.871,243.359 209.466 C 243.359 209.977,243.155 210.076,242.109 210.076 C 241.116 210.076,240.826 210.202,240.699 210.687 C 240.574 211.165,240.283 211.298,239.354 211.298 C 238.292 211.298,238.168 211.378,238.168 212.061 C 238.168 212.762,238.056 212.824,236.794 212.824 C 235.623 212.824,235.420 212.915,235.420 213.435 C 235.420 213.955,235.216 214.046,234.046 214.046 C 232.889 214.046,232.672 214.140,232.672 214.639 C 232.672 215.118,232.423 215.250,231.374 215.326 C 230.295 215.404,230.060 215.536,229.979 216.107 C 229.896 216.686,229.693 216.794,228.681 216.794 C 227.684 216.794,227.481 216.897,227.481 217.405 C 227.481 217.925,227.277 218.015,226.107 218.015 C 224.950 218.015,224.733 218.109,224.733 218.608 C 224.733 219.088,224.484 219.220,223.435 219.295 C 222.356 219.373,222.121 219.505,222.040 220.076 C 221.955 220.672,221.760 220.763,220.576 220.763 C 219.444 220.763,219.225 220.855,219.300 221.298 C 219.371 221.725,219.132 221.851,218.111 221.925 C 217.062 222.001,216.815 222.138,216.737 222.688 C 216.670 223.153,216.465 223.328,216.066 223.260 C 215.010 223.078,214.046 223.492,214.046 224.128 C 214.046 224.641,213.838 224.733,212.672 224.733 C 211.515 224.733,211.298 224.827,211.298 225.326 C 211.298 225.805,211.049 225.937,210.000 226.013 C 208.937 226.090,208.702 226.217,208.702 226.718 C 208.702 227.218,208.467 227.345,207.405 227.422 C 206.355 227.498,206.107 227.630,206.107 228.109 C 206.107 228.609,205.890 228.702,204.733 228.702 C 203.576 228.702,203.359 228.796,203.359 229.295 C 203.359 229.775,203.110 229.907,202.061 229.982 C 200.982 230.060,200.747 230.192,200.666 230.763 C 200.605 231.195,200.357 231.450,200.000 231.450 C 199.643 231.450,199.395 231.195,199.334 230.763 C 199.253 230.192,199.018 230.060,197.939 229.982 C 196.890 229.907,196.641 229.775,196.641 229.295 C 196.641 228.796,196.424 228.702,195.267 228.702 C 194.097 228.702,193.893 228.612,193.893 228.092 C 193.893 227.584,193.690 227.481,192.693 227.481 C 191.681 227.481,191.478 227.373,191.395 226.794 C 191.314 226.223,191.079 226.091,190.000 226.013 C 188.951 225.937,188.702 225.805,188.702 225.326 C 188.702 224.827,188.485 224.733,187.328 224.733 C 186.162 224.733,185.954 224.641,185.954 224.128 C 185.954 223.492,184.990 223.078,183.934 223.260 C 183.532 223.329,183.329 223.152,183.261 222.672 C 183.179 222.092,182.976 221.985,181.963 221.985 C 180.967 221.985,180.763 221.881,180.763 221.374 C 180.763 220.855,180.560 220.763,179.411 220.763 C 178.240 220.763,178.045 220.671,177.960 220.076 C 177.879 219.505,177.644 219.373,176.565 219.295 C 175.516 219.220,175.267 219.088,175.267 218.608 C 175.267 218.109,175.050 218.015,173.893 218.015 C 172.723 218.015,172.519 217.925,172.519 217.405 C 172.519 216.897,172.316 216.794,171.319 216.794 C 170.307 216.794,170.104 216.686,170.021 216.107 C 169.940 215.536,169.705 215.404,168.626 215.326 C 167.577 215.250,167.328 215.118,167.328 214.639 C 167.328 214.140,167.111 214.046,165.954 214.046 C 164.784 214.046,164.580 213.955,164.580 213.435 C 164.580 212.929,164.377 212.824,163.392 212.824 C 162.379 212.824,162.175 212.712,162.012 212.061 C 161.849 211.412,161.644 211.298,160.640 211.298 C 159.717 211.298,159.426 211.165,159.301 210.687 C 159.174 210.202,158.884 210.076,157.891 210.076 C 156.845 210.076,156.641 209.977,156.641 209.466 C 156.641 208.871,156.499 208.817,154.689 208.719 C 154.371 208.702,153.997 208.382,153.859 208.008 C 153.656 207.459,153.370 207.328,152.376 207.328 C 151.349 207.328,151.145 207.227,151.145 206.718 C 151.145 206.210,150.941 206.107,149.944 206.107 C 149.034 206.107,148.699 205.967,148.560 205.528 C 148.443 205.159,147.966 204.873,147.241 204.738 C 146.617 204.622,145.861 204.264,145.561 203.943 C 145.165 203.520,144.597 203.359,143.500 203.359 C 142.188 203.359,141.985 203.277,141.985 202.748 C 141.985 202.228,141.781 202.137,140.611 202.137 C 139.349 202.137,139.237 202.075,139.237 201.374 C 139.237 200.691,139.112 200.611,138.051 200.611 C 137.122 200.611,136.831 200.478,136.705 200.000 C 136.579 199.515,136.289 199.389,135.296 199.389 C 134.275 199.389,134.046 199.284,134.046 198.814 C 134.046 198.228,133.276 197.875,131.985 197.867 C 131.503 197.864,131.298 197.680,131.298 197.252 C 131.298 196.732,131.094 196.641,129.924 196.641 C 128.753 196.641,128.550 196.551,128.550 196.031 C 128.550 195.523,128.346 195.420,127.349 195.420 C 126.337 195.420,126.134 195.312,126.052 194.733 C 125.971 194.162,125.735 194.030,124.656 193.952 C 123.607 193.876,123.359 193.744,123.359 193.265 C 123.359 192.765,123.142 192.672,121.985 192.672 C 120.814 192.672,120.611 192.581,120.611 192.061 C 120.611 191.541,120.407 191.450,119.237 191.450 C 117.968 191.450,117.863 191.391,117.863 190.674 C 117.863 190.229,117.699 189.918,117.481 189.946 C 116.252 190.106,115.479 189.878,115.331 189.313 C 115.204 188.828,114.915 188.702,113.922 188.702 L 112.672 188.702 112.672 211.937 " stroke="none" fill="#4354b4" fill-rule="evenodd"></path><path id="path2" d="M151.854 75.922 C 151.489 76.002,151.025 76.265,150.824 76.507 C 150.624 76.749,150.073 76.947,149.601 76.947 C 148.544 76.947,147.281 77.408,146.673 78.016 C 146.421 78.268,145.881 78.473,145.471 78.473 C 145.062 78.473,144.492 78.748,144.204 79.084 C 143.916 79.420,143.501 79.695,143.281 79.695 C 142.293 79.695,136.794 83.811,136.794 84.550 C 136.794 84.735,136.649 84.885,136.471 84.885 C 136.082 84.885,133.131 87.745,133.126 88.127 C 133.124 88.276,132.609 88.953,131.981 89.633 C 130.548 91.185,129.287 93.053,129.002 94.046 C 128.881 94.466,128.609 95.015,128.397 95.267 C 128.185 95.519,127.910 96.069,127.786 96.489 C 127.663 96.908,127.367 97.474,127.129 97.745 C 126.891 98.017,126.559 99.094,126.391 100.140 C 126.222 101.185,125.871 102.366,125.610 102.764 C 125.216 103.366,124.576 108.809,124.588 111.450 C 124.603 114.444,125.181 119.481,125.580 120.090 C 125.843 120.492,126.203 121.605,126.381 122.565 C 126.558 123.524,126.912 124.679,127.166 125.131 C 127.421 125.584,127.767 126.298,127.936 126.718 C 128.105 127.137,128.377 127.687,128.541 127.939 C 128.706 128.191,129.055 128.878,129.317 129.466 C 129.939 130.862,130.732 132.327,130.970 132.519 C 131.074 132.603,131.420 133.080,131.738 133.580 C 133.638 136.558,139.521 141.991,142.061 143.111 C 142.523 143.315,142.901 143.609,142.901 143.765 C 142.901 143.921,143.347 144.229,143.893 144.449 C 144.439 144.670,144.969 144.972,145.070 145.120 C 145.172 145.267,145.838 145.519,146.551 145.680 C 147.263 145.840,148.032 146.157,148.259 146.384 C 148.486 146.611,149.320 146.894,150.112 147.012 C 150.904 147.131,151.901 147.457,152.327 147.736 C 153.617 148.582,162.685 148.657,165.417 147.844 C 166.552 147.507,168.099 147.132,168.853 147.011 C 169.608 146.890,170.705 146.534,171.292 146.220 C 171.878 145.906,172.707 145.649,173.134 145.649 C 173.561 145.649,174.182 145.458,174.515 145.225 C 174.847 144.992,175.702 144.627,176.415 144.414 C 177.127 144.200,177.710 143.910,177.710 143.769 C 177.710 143.628,178.116 143.341,178.613 143.131 C 181.054 142.096,188.366 134.482,188.391 132.948 C 188.394 132.764,188.662 132.373,188.987 132.080 C 189.763 131.378,189.500 130.796,188.217 130.373 C 187.644 130.184,187.176 129.917,187.176 129.780 C 187.176 129.644,186.660 129.310,186.031 129.039 C 184.859 128.535,184.471 128.318,182.579 127.107 C 181.982 126.725,181.278 126.412,181.013 126.412 C 180.749 126.412,180.350 126.192,180.126 125.922 C 178.865 124.403,176.516 124.658,175.731 126.400 C 175.434 127.059,175.002 127.670,174.771 127.759 C 174.540 127.847,174.351 128.108,174.351 128.338 C 174.351 128.753,171.418 131.603,170.991 131.603 C 170.869 131.603,170.405 131.890,169.960 132.240 C 169.515 132.590,168.638 133.017,168.010 133.190 C 167.383 133.362,166.785 133.639,166.681 133.804 C 166.166 134.624,157.534 135.001,154.016 134.357 C 154.000 134.354,153.670 134.076,153.282 133.740 C 152.895 133.405,152.310 133.130,151.982 133.130 C 151.654 133.130,150.978 132.786,150.479 132.366 C 149.980 131.947,149.406 131.603,149.205 131.603 C 149.003 131.603,148.610 131.363,148.331 131.069 C 148.052 130.775,147.337 130.122,146.742 129.618 C 146.148 129.115,145.659 128.564,145.655 128.394 C 145.652 128.225,145.374 127.914,145.038 127.704 C 144.702 127.495,144.427 127.152,144.427 126.944 C 144.427 126.735,144.083 126.166,143.664 125.678 C 143.244 125.190,142.901 124.554,142.901 124.265 C 142.901 123.976,142.704 123.576,142.464 123.376 C 142.223 123.177,141.881 122.332,141.702 121.498 C 141.523 120.665,141.179 119.677,140.938 119.304 C 140.473 118.586,139.746 112.049,140.013 110.992 C 140.098 110.656,140.290 109.076,140.441 107.481 C 140.693 104.796,141.744 101.046,142.512 100.086 C 142.685 99.871,142.925 99.373,143.046 98.979 C 143.600 97.174,148.042 92.214,149.105 92.214 C 149.351 92.214,149.619 92.041,149.700 91.831 C 149.781 91.620,150.379 91.260,151.030 91.030 C 151.681 90.800,152.422 90.431,152.676 90.209 C 154.121 88.951,165.308 89.098,166.959 90.397 C 167.375 90.724,167.967 90.992,168.274 90.992 C 168.580 90.992,169.077 91.250,169.377 91.565 C 169.678 91.880,170.219 92.229,170.581 92.340 C 171.325 92.568,174.351 95.219,174.351 95.642 C 174.351 95.794,174.661 96.356,175.039 96.891 C 175.417 97.425,175.882 98.137,176.073 98.473 C 176.511 99.247,177.957 99.156,178.675 98.308 C 178.954 97.979,179.370 97.710,179.599 97.710 C 179.829 97.710,180.252 97.435,180.540 97.099 C 180.827 96.763,181.246 96.489,181.471 96.489 C 181.695 96.489,182.201 96.145,182.595 95.725 C 182.990 95.305,183.462 94.962,183.644 94.962 C 183.826 94.962,184.147 94.687,184.357 94.351 C 184.566 94.015,184.891 93.740,185.077 93.740 C 185.592 93.740,188.038 92.118,188.231 91.649 C 188.381 91.286,187.748 90.290,186.454 88.855 C 186.227 88.603,185.525 87.710,184.894 86.870 C 184.263 86.031,183.556 85.234,183.323 85.099 C 183.091 84.965,182.901 84.656,182.901 84.412 C 182.901 84.169,182.768 83.969,182.606 83.969 C 182.444 83.969,181.893 83.561,181.382 83.061 C 180.117 81.824,177.205 79.695,176.779 79.695 C 176.588 79.695,176.097 79.431,175.688 79.109 C 175.279 78.787,174.398 78.432,173.731 78.319 C 173.065 78.206,172.519 78.011,172.519 77.885 C 172.519 77.551,171.077 76.947,170.283 76.947 C 169.908 76.947,169.262 76.707,168.847 76.414 C 168.107 75.893,153.871 75.480,151.854 75.922 M231.298 76.222 C 230.626 76.481,229.434 76.808,228.649 76.950 C 227.864 77.092,226.902 77.410,226.511 77.656 C 226.121 77.903,225.478 78.201,225.083 78.319 C 223.365 78.834,219.020 82.407,216.546 85.341 C 216.326 85.602,215.956 86.270,215.724 86.825 C 215.492 87.380,215.088 88.013,214.827 88.230 C 214.565 88.447,214.351 89.089,214.351 89.657 C 214.351 90.225,214.076 91.202,213.740 91.829 C 213.253 92.739,213.139 93.492,213.175 95.568 L 213.219 98.168 213.438 96.031 C 214.241 88.166,219.694 80.560,226.107 78.360 C 237.929 74.305,247.855 75.271,260.580 81.714 C 264.102 83.498,264.229 83.719,263.028 85.962 C 260.390 90.887,259.374 92.796,258.847 93.817 C 258.523 94.447,258.193 94.962,258.116 94.962 C 257.817 94.962,256.613 94.250,256.031 93.728 C 255.437 93.196,251.147 90.923,249.284 90.153 C 243.040 87.572,233.073 87.855,230.306 90.692 C 228.617 92.424,228.451 92.698,228.238 94.124 C 227.591 98.463,229.211 101.061,233.805 103.052 C 235.163 103.640,236.504 104.122,236.784 104.122 C 237.063 104.122,237.553 104.262,237.873 104.433 C 238.192 104.604,239.660 105.003,241.135 105.319 C 242.610 105.635,244.229 106.042,244.733 106.223 C 245.237 106.404,247.092 106.973,248.855 107.488 C 250.618 108.003,252.473 108.615,252.977 108.848 C 253.481 109.081,254.202 109.358,254.580 109.465 C 254.958 109.572,255.267 109.778,255.267 109.924 C 255.267 110.069,255.560 110.281,255.918 110.394 C 259.819 111.633,264.958 116.970,265.624 120.476 C 265.781 121.306,266.077 122.397,266.281 122.901 C 268.575 128.573,264.767 139.012,258.776 143.473 C 258.365 143.780,255.549 145.098,253.260 146.057 C 248.915 147.875,236.155 148.674,231.756 147.403 C 230.832 147.136,229.389 146.827,228.550 146.716 C 223.398 146.034,210.992 140.428,210.992 138.783 C 210.992 138.002,216.398 127.023,216.782 127.023 C 216.915 127.023,217.196 127.229,217.405 127.481 C 217.614 127.733,217.914 127.939,218.073 127.939 C 218.232 127.939,218.799 128.248,219.333 128.627 C 220.740 129.622,221.428 130.036,222.290 130.404 C 222.709 130.583,223.259 130.911,223.511 131.133 C 224.099 131.651,227.640 133.058,229.017 133.320 C 229.600 133.431,230.489 133.733,230.992 133.991 C 231.496 134.249,233.351 134.651,235.115 134.883 C 245.615 136.267,249.425 135.164,251.282 130.201 C 252.143 127.900,251.504 124.989,249.992 124.323 C 249.862 124.266,249.061 123.626,248.213 122.902 C 247.327 122.146,246.210 121.500,245.588 121.383 C 244.992 121.271,244.281 121.055,244.008 120.904 C 243.330 120.527,236.476 118.362,230.382 116.599 C 228.534 116.065,226.817 115.527,226.565 115.404 C 217.202 110.827,214.053 107.242,213.438 100.458 L 213.231 98.168 213.180 100.688 C 213.140 102.693,213.255 103.441,213.740 104.348 C 214.076 104.974,214.351 105.708,214.351 105.979 C 214.351 106.249,214.626 106.719,214.962 107.023 C 215.298 107.327,215.573 107.760,215.573 107.985 C 215.573 108.392,217.902 110.813,219.277 111.834 C 221.454 113.451,222.138 113.893,222.465 113.893 C 222.663 113.893,222.990 114.090,223.190 114.332 C 223.390 114.573,223.991 114.863,224.525 114.976 C 225.059 115.090,225.702 115.363,225.954 115.584 C 226.206 115.804,227.099 116.155,227.939 116.363 C 228.779 116.571,229.740 116.912,230.076 117.120 C 230.412 117.329,231.443 117.596,232.366 117.714 C 233.290 117.832,234.252 118.105,234.504 118.320 C 234.756 118.536,235.580 118.812,236.336 118.935 C 237.092 119.057,238.191 119.396,238.779 119.688 C 239.366 119.980,240.445 120.311,241.175 120.424 C 241.906 120.536,242.689 120.813,242.916 121.040 C 243.143 121.267,243.947 121.546,244.702 121.659 C 245.660 121.802,246.600 122.272,247.807 123.209 C 248.759 123.948,249.637 124.594,249.759 124.643 C 250.704 125.027,251.811 128.608,251.153 129.154 C 250.906 129.359,250.621 129.964,250.521 130.498 C 250.330 131.516,248.866 133.435,248.280 133.435 C 248.093 133.435,247.939 133.563,247.939 133.719 C 247.939 134.963,233.401 135.038,231.980 133.801 C 231.683 133.543,230.689 133.230,229.771 133.105 C 228.853 132.980,227.900 132.677,227.654 132.430 C 227.407 132.184,226.684 131.885,226.046 131.767 C 225.408 131.648,224.675 131.362,224.417 131.131 C 224.159 130.900,223.129 130.275,222.127 129.742 C 221.125 129.209,219.978 128.516,219.577 128.203 C 219.177 127.890,218.692 127.634,218.500 127.634 C 218.308 127.634,217.916 127.359,217.628 127.023 C 217.066 126.367,216.815 126.294,216.336 126.646 C 215.950 126.929,212.821 133.159,212.823 133.639 C 212.824 133.835,212.712 134.041,212.574 134.097 C 212.100 134.290,210.382 138.115,210.382 138.978 C 210.382 139.873,210.889 140.256,213.817 141.565 C 214.447 141.847,214.962 142.183,214.962 142.313 C 214.962 142.442,215.477 142.713,216.107 142.916 C 216.737 143.118,217.458 143.459,217.710 143.674 C 217.962 143.889,218.782 144.229,219.533 144.429 C 220.284 144.629,221.173 144.985,221.509 145.221 C 221.846 145.456,222.399 145.650,222.740 145.651 C 223.080 145.652,223.771 145.877,224.275 146.152 C 224.779 146.427,226.290 146.824,227.634 147.035 C 228.977 147.245,230.695 147.650,231.450 147.934 C 233.424 148.676,248.425 148.509,250.076 147.727 C 250.664 147.449,251.626 147.125,252.214 147.007 C 253.260 146.798,253.675 146.617,257.099 144.878 C 259.317 143.751,262.353 141.337,262.912 140.255 C 263.158 139.780,263.856 138.672,264.464 137.794 C 265.071 136.915,265.659 135.630,265.770 134.938 C 265.881 134.246,266.155 133.496,266.380 133.271 C 267.319 132.332,267.325 122.805,266.388 121.319 C 266.157 120.953,265.875 120.060,265.762 119.334 C 265.565 118.077,265.131 117.317,263.588 115.520 C 263.210 115.080,262.901 114.603,262.901 114.459 C 262.901 114.316,262.775 114.198,262.620 114.198 C 262.466 114.198,261.784 113.683,261.105 113.053 C 259.656 111.709,257.962 110.609,256.949 110.355 C 256.552 110.255,256.158 109.993,256.073 109.772 C 255.988 109.551,255.504 109.279,254.997 109.168 C 254.490 109.057,253.759 108.721,253.373 108.422 C 252.987 108.124,252.018 107.792,251.219 107.686 C 250.420 107.579,249.458 107.297,249.082 107.058 C 248.705 106.819,247.821 106.531,247.117 106.418 C 246.413 106.305,245.319 105.948,244.686 105.625 C 244.053 105.302,242.980 105.037,242.302 105.036 C 241.624 105.035,240.663 104.823,240.166 104.564 C 239.670 104.305,238.639 104.011,237.876 103.911 C 237.113 103.811,235.871 103.406,235.117 103.010 C 234.363 102.614,233.466 102.290,233.124 102.290 C 232.782 102.290,232.284 102.050,232.018 101.756 C 231.752 101.462,231.053 100.781,230.465 100.244 C 226.545 96.657,228.609 90.333,233.934 89.618 C 234.835 89.497,236.036 89.207,236.602 88.974 C 237.914 88.433,240.497 88.429,242.023 88.965 C 242.674 89.194,244.151 89.482,245.307 89.605 C 246.470 89.728,247.832 90.087,248.360 90.409 C 248.884 90.729,249.476 90.991,249.675 90.991 C 250.163 90.993,251.200 91.466,252.672 92.358 C 253.344 92.765,254.221 93.247,254.623 93.428 C 255.256 93.714,256.056 94.289,257.654 95.608 C 258.069 95.951,258.900 95.206,258.922 94.472 C 258.927 94.287,259.275 93.764,259.695 93.311 C 260.115 92.858,260.458 92.295,260.458 92.059 C 260.458 91.823,260.802 91.124,261.221 90.505 C 261.641 89.887,261.985 89.210,261.985 89.002 C 261.985 88.795,262.177 88.465,262.413 88.269 C 262.648 88.074,262.929 87.562,263.037 87.132 C 263.145 86.703,263.513 85.973,263.855 85.510 C 264.555 84.564,264.535 83.110,263.817 82.702 C 263.565 82.559,263.015 82.303,262.595 82.132 C 262.176 81.961,261.076 81.400,260.153 80.885 C 259.229 80.369,258.004 79.809,257.431 79.640 C 256.858 79.471,256.195 79.140,255.959 78.903 C 255.722 78.667,255.246 78.473,254.900 78.473 C 254.554 78.473,253.842 78.209,253.318 77.885 C 252.795 77.562,251.473 77.162,250.382 76.997 C 249.290 76.832,247.847 76.485,247.176 76.225 C 245.406 75.540,233.076 75.538,231.298 76.222 M166.740 76.658 C 168.659 77.004,170.779 77.540,171.450 77.849 C 172.122 78.159,173.691 78.848,174.937 79.381 C 178.712 80.994,182.150 83.950,185.878 88.786 C 188.195 91.793,188.306 91.198,185.014 93.419 C 183.489 94.447,182.080 95.427,181.884 95.595 C 178.418 98.560,176.853 98.774,175.413 96.478 C 173.291 93.093,169.160 90.293,164.580 89.136 C 155.591 86.864,146.356 90.968,142.538 98.931 C 140.685 102.796,140.427 103.549,140.164 105.852 C 140.013 107.180,139.723 108.925,139.521 109.729 C 138.934 112.060,139.623 117.971,140.771 120.458 C 140.926 120.794,141.338 121.851,141.687 122.807 C 144.676 131.003,154.583 137.021,162.209 135.274 C 162.926 135.110,164.198 134.849,165.038 134.693 C 167.171 134.298,169.869 133.097,171.365 131.874 C 172.062 131.305,172.904 130.685,173.237 130.496 C 173.938 130.099,175.423 128.141,175.884 127.007 C 176.520 125.443,177.866 125.011,179.249 125.926 C 179.907 126.361,180.517 126.718,180.606 126.718 C 180.695 126.718,182.341 127.611,184.263 128.702 C 186.186 129.794,187.895 130.687,188.060 130.687 C 189.492 130.687,186.309 136.167,183.389 138.730 C 183.036 139.039,182.336 139.663,181.832 140.116 C 178.967 142.695,175.953 144.314,171.797 145.510 C 170.980 145.746,170.145 146.076,169.941 146.245 C 169.738 146.414,168.620 146.690,167.457 146.858 C 166.295 147.026,164.382 147.370,163.206 147.622 C 159.745 148.365,158.157 148.264,151.177 146.854 C 150.271 146.671,149.241 146.340,148.887 146.119 C 148.534 145.898,147.725 145.552,147.090 145.351 C 145.871 144.964,144.654 144.301,141.311 142.202 C 139.371 140.984,134.210 136.262,133.050 134.643 C 128.628 128.473,125.557 120.587,125.216 114.525 C 124.984 110.397,125.325 105.123,125.916 103.709 C 126.172 103.096,126.523 101.827,126.697 100.889 C 127.091 98.756,130.128 92.588,131.928 90.264 C 134.431 87.033,140.617 81.221,141.554 81.221 C 141.637 81.221,142.076 80.966,142.531 80.654 C 145.006 78.959,146.089 78.488,150.687 77.111 C 154.989 75.822,161.131 75.649,166.740 76.658 " stroke="none" fill="#838dce" fill-rule="evenodd"></path><path id="path3" d="M155.347 76.246 C 155.727 76.320,156.277 76.317,156.568 76.240 C 156.860 76.164,156.550 76.104,155.878 76.108 C 155.206 76.111,154.967 76.173,155.347 76.246 M162.519 76.241 C 162.813 76.318,163.294 76.318,163.588 76.241 C 163.882 76.164,163.641 76.101,163.053 76.101 C 162.466 76.101,162.225 76.164,162.519 76.241 M233.969 76.241 C 234.263 76.318,234.744 76.318,235.038 76.241 C 235.332 76.164,235.092 76.101,234.504 76.101 C 233.916 76.101,233.676 76.164,233.969 76.241 M242.519 76.241 C 242.813 76.318,243.294 76.318,243.588 76.241 C 243.882 76.164,243.641 76.101,243.053 76.101 C 242.466 76.101,242.225 76.164,242.519 76.241 M223.664 79.551 C 222.470 80.531,222.791 80.524,224.122 79.542 C 224.691 79.122,225.027 78.784,224.868 78.790 C 224.710 78.796,224.168 79.138,223.664 79.551 M263.359 84.122 C 263.359 84.678,263.462 85.069,263.588 84.991 C 263.714 84.913,263.817 84.522,263.817 84.122 C 263.817 83.722,263.714 83.331,263.588 83.253 C 263.462 83.175,263.359 83.566,263.359 84.122 M238.554 88.158 C 239.018 88.228,239.705 88.226,240.081 88.154 C 240.456 88.081,240.076 88.024,239.237 88.026 C 238.397 88.029,238.090 88.088,238.554 88.158 M158.708 88.466 C 159.257 88.534,160.081 88.532,160.540 88.462 C 160.999 88.393,160.550 88.337,159.542 88.339 C 158.534 88.341,158.159 88.398,158.708 88.466 M227.857 95.878 C 227.857 96.466,227.920 96.706,227.997 96.412 C 228.074 96.118,228.074 95.637,227.997 95.344 C 227.920 95.050,227.857 95.290,227.857 95.878 M176.383 98.092 C 176.461 98.218,176.852 98.321,177.252 98.321 C 177.652 98.321,178.043 98.218,178.121 98.092 C 178.199 97.966,177.808 97.863,177.252 97.863 C 176.696 97.863,176.305 97.966,176.383 98.092 M125.268 107.328 C 125.271 108.000,125.334 108.239,125.407 107.859 C 125.480 107.479,125.477 106.930,125.401 106.638 C 125.324 106.346,125.264 106.656,125.268 107.328 M139.029 112.366 C 139.029 113.458,139.084 113.905,139.152 113.359 C 139.220 112.813,139.220 111.920,139.152 111.374 C 139.084 110.828,139.029 111.275,139.029 112.366 M125.274 115.725 C 125.274 116.481,125.334 116.790,125.406 116.412 C 125.479 116.034,125.479 115.416,125.406 115.038 C 125.334 114.660,125.274 114.969,125.274 115.725 M266.656 127.328 C 266.656 128.252,266.714 128.630,266.784 128.168 C 266.854 127.706,266.854 126.950,266.784 126.489 C 266.714 126.027,266.656 126.405,266.656 127.328 M266.145 131.336 C 265.890 132.609,266.137 132.855,266.412 131.603 C 266.528 131.075,266.559 130.580,266.482 130.502 C 266.404 130.424,266.252 130.799,266.145 131.336 M167.328 134.046 C 166.740 134.368,166.397 134.631,166.565 134.631 C 166.733 134.631,167.351 134.368,167.939 134.046 C 168.527 133.724,168.870 133.461,168.702 133.461 C 168.534 133.461,167.916 133.724,167.328 134.046 M158.702 135.788 C 159.080 135.861,159.698 135.861,160.076 135.788 C 160.454 135.715,160.145 135.656,159.389 135.656 C 158.634 135.656,158.324 135.715,158.702 135.788 M240.081 135.792 C 240.545 135.862,241.232 135.860,241.607 135.787 C 241.983 135.715,241.603 135.658,240.763 135.660 C 239.924 135.662,239.616 135.721,240.081 135.792 M137.557 139.237 C 138.554 140.244,139.439 141.069,139.523 141.069 C 139.607 141.069,138.860 140.244,137.863 139.237 C 136.865 138.229,135.981 137.405,135.897 137.405 C 135.813 137.405,136.560 138.229,137.557 139.237 M211.196 137.608 C 210.918 137.886,210.938 139.472,211.221 139.647 C 211.347 139.725,211.450 139.253,211.450 138.597 C 211.450 137.941,211.439 137.405,211.425 137.405 C 211.411 137.405,211.308 137.496,211.196 137.608 M221.374 144.580 C 221.794 144.820,222.275 145.017,222.443 145.017 C 222.611 145.017,222.405 144.820,221.985 144.580 C 221.565 144.340,221.084 144.144,220.916 144.144 C 220.748 144.144,220.954 144.340,221.374 144.580 M236.870 148.002 C 237.248 148.075,237.866 148.075,238.244 148.002 C 238.622 147.929,238.313 147.869,237.557 147.869 C 236.802 147.869,236.492 147.929,236.870 148.002 M242.214 147.997 C 242.508 148.074,242.989 148.074,243.282 147.997 C 243.576 147.920,243.336 147.857,242.748 147.857 C 242.160 147.857,241.920 147.920,242.214 147.997 " stroke="none" fill="#9ca4dc" fill-rule="evenodd"></path><path id="path4" d="M155.020 76.375 C 152.470 76.703,148.866 77.637,147.634 78.290 C 147.130 78.557,146.511 78.777,146.260 78.779 C 146.008 78.781,145.389 79.065,144.885 79.409 C 144.382 79.754,143.695 80.165,143.359 80.323 C 141.249 81.313,139.000 83.047,136.160 85.875 C 131.273 90.741,127.585 96.718,126.759 101.108 C 126.589 102.010,126.241 103.336,125.984 104.054 C 124.961 106.919,125.086 116.507,126.189 119.695 C 126.451 120.450,126.910 121.893,127.210 122.901 C 129.821 131.667,136.178 139.323,144.885 144.187 C 150.187 147.149,158.629 148.566,163.969 147.392 C 165.229 147.115,166.947 146.760,167.786 146.603 C 168.626 146.445,170.481 145.886,171.908 145.360 C 173.336 144.833,174.967 144.260,175.532 144.085 C 177.114 143.598,184.118 138.562,184.121 137.911 C 184.122 137.770,184.717 136.946,185.443 136.079 C 186.169 135.213,187.195 133.789,187.721 132.916 L 188.678 131.328 185.255 129.431 C 183.372 128.388,181.420 127.329,180.916 127.078 C 180.412 126.827,179.616 126.354,179.148 126.029 C 177.797 125.090,177.015 125.504,175.395 128.018 C 174.611 129.234,173.836 130.279,173.673 130.341 C 173.510 130.402,172.925 130.849,172.373 131.333 C 171.821 131.817,171.223 132.214,171.044 132.214 C 170.864 132.214,170.607 132.385,170.473 132.595 C 169.076 134.779,157.714 136.575,154.828 135.068 C 154.398 134.844,153.877 134.659,153.671 134.658 C 153.196 134.656,150.155 133.017,148.551 131.898 C 145.387 129.691,141.070 123.699,141.069 121.511 C 141.069 121.251,140.945 120.908,140.795 120.748 C 139.620 119.503,138.675 112.283,139.336 109.596 C 139.601 108.517,139.910 106.740,140.022 105.649 C 140.236 103.560,140.397 103.097,142.365 98.931 C 147.257 88.575,161.075 85.110,170.899 91.776 C 171.531 92.205,172.119 92.654,172.207 92.774 C 172.295 92.893,172.745 93.232,173.208 93.527 C 173.670 93.821,174.620 94.951,175.318 96.039 C 177.029 98.704,177.560 98.603,183.254 94.521 C 185.318 93.042,185.853 92.668,186.908 91.976 L 187.708 91.450 185.777 89.008 C 184.715 87.664,183.462 86.071,182.992 85.466 C 182.522 84.862,181.529 83.900,180.786 83.329 C 180.042 82.758,179.283 82.153,179.098 81.985 C 178.280 81.242,176.830 80.349,175.420 79.720 C 172.073 78.229,168.518 76.946,167.716 76.941 C 167.251 76.938,165.634 76.733,164.122 76.484 C 161.131 75.993,158.260 75.958,155.020 76.375 M234.809 76.233 C 223.366 78.025,216.686 83.310,214.334 92.432 C 213.357 96.221,213.107 100.839,213.788 102.499 C 213.982 102.972,214.363 103.977,214.634 104.733 C 215.262 106.484,217.260 109.496,218.240 110.169 C 218.655 110.454,219.427 111.080,219.955 111.560 C 221.450 112.918,227.268 115.561,231.145 116.642 C 233.076 117.180,235.137 117.800,235.725 118.018 C 236.313 118.236,239.061 119.139,241.832 120.024 C 250.630 122.833,253.588 126.437,251.053 131.260 C 249.171 134.842,243.611 136.647,238.098 135.466 C 236.877 135.205,234.916 134.896,233.740 134.780 C 232.565 134.664,231.328 134.391,230.992 134.172 C 230.656 133.953,229.695 133.625,228.855 133.441 C 227.276 133.097,225.856 132.558,224.275 131.702 C 223.771 131.429,222.947 130.996,222.443 130.740 C 221.939 130.484,220.463 129.612,219.164 128.801 C 217.864 127.991,216.732 127.328,216.649 127.328 C 216.302 127.328,211.298 137.941,211.298 138.677 C 211.298 139.568,215.374 142.098,219.084 143.509 C 220.092 143.892,221.592 144.475,222.418 144.805 C 224.435 145.610,226.530 146.180,229.466 146.722 C 230.809 146.970,232.595 147.320,233.435 147.498 C 237.728 148.412,249.993 147.527,252.717 146.107 C 253.196 145.857,253.703 145.652,253.843 145.651 C 255.146 145.641,260.428 142.218,261.827 140.476 C 269.695 130.683,267.681 116.984,257.557 111.436 C 256.550 110.884,255.519 110.277,255.267 110.087 C 254.599 109.584,251.899 108.582,248.244 107.481 C 246.481 106.950,244.489 106.330,243.817 106.104 C 243.145 105.878,241.565 105.487,240.305 105.235 C 239.045 104.983,237.052 104.415,235.877 103.972 C 234.702 103.529,233.466 103.088,233.130 102.993 C 228.627 101.714,226.536 95.722,229.182 91.680 C 231.340 88.385,240.910 86.886,246.068 89.036 C 246.634 89.272,247.300 89.466,247.548 89.466 C 248.500 89.466,254.863 92.570,256.375 93.771 C 257.863 94.954,258.106 94.901,258.990 93.206 C 259.405 92.408,260.343 90.656,261.074 89.313 C 264.130 83.695,264.126 83.739,261.756 82.450 C 252.946 77.657,241.935 75.117,234.809 76.233 M163.904 76.966 C 164.360 77.123,165.920 77.370,167.370 77.516 C 168.930 77.672,170.299 77.984,170.721 78.279 C 171.113 78.554,171.712 78.783,172.053 78.788 C 172.393 78.793,173.221 79.136,173.893 79.550 C 174.565 79.964,175.328 80.303,175.590 80.304 C 177.823 80.311,187.885 90.858,186.434 91.670 C 186.136 91.837,185.670 92.233,185.398 92.551 C 185.125 92.870,184.737 93.130,184.534 93.130 C 184.332 93.130,183.984 93.309,183.762 93.529 C 183.540 93.748,182.912 94.190,182.366 94.510 C 181.821 94.831,181.374 95.185,181.374 95.296 C 181.374 95.407,180.962 95.669,180.458 95.878 C 179.954 96.087,179.542 96.356,179.542 96.477 C 179.542 96.803,178.085 97.406,177.314 97.398 C 176.819 97.393,176.318 96.869,175.420 95.420 C 174.678 94.223,173.869 93.312,173.359 93.100 C 172.897 92.908,172.519 92.653,172.519 92.533 C 172.519 92.330,171.085 91.360,168.514 89.821 C 167.906 89.458,167.148 89.160,166.830 89.160 C 166.511 89.160,165.738 88.885,165.111 88.550 C 163.314 87.587,156.351 87.655,153.764 88.661 C 151.250 89.639,151.165 89.678,149.771 90.525 C 149.099 90.933,148.264 91.399,147.914 91.560 C 146.862 92.047,142.644 96.794,142.440 97.721 C 142.336 98.196,142.062 98.740,141.832 98.931 C 141.602 99.122,141.320 99.716,141.207 100.250 C 141.094 100.784,140.797 101.453,140.547 101.736 C 140.298 102.019,139.915 103.462,139.696 104.942 C 139.477 106.422,139.146 108.114,138.962 108.700 C 138.468 110.269,138.533 115.997,139.055 116.999 C 139.290 117.448,139.632 118.517,139.816 119.374 C 139.999 120.232,140.343 121.239,140.579 121.612 C 140.816 121.985,141.103 122.744,141.219 123.298 C 141.691 125.558,146.902 131.980,148.613 132.410 C 148.998 132.506,149.313 132.696,149.313 132.831 C 149.313 133.151,151.933 134.614,152.952 134.863 C 153.386 134.969,154.219 135.309,154.805 135.619 C 156.161 136.338,160.921 136.397,163.369 135.725 C 164.287 135.473,165.788 135.117,166.704 134.935 C 167.620 134.752,168.703 134.340,169.111 134.019 C 169.519 133.698,169.995 133.435,170.168 133.435 C 170.341 133.435,170.701 133.235,170.967 132.991 C 172.530 131.557,172.874 131.288,173.681 130.870 C 174.170 130.617,174.744 129.992,174.956 129.480 C 175.168 128.968,175.445 128.550,175.573 128.550 C 175.700 128.550,175.964 128.172,176.161 127.710 C 176.802 126.202,177.845 125.670,178.852 126.336 C 180.243 127.258,180.856 127.618,182.137 128.269 C 182.809 128.610,183.908 129.220,184.580 129.625 C 185.252 130.029,186.248 130.573,186.794 130.833 C 187.943 131.380,188.025 131.828,187.176 132.908 C 186.840 133.335,186.565 133.778,186.565 133.893 C 186.565 134.007,185.947 134.825,185.191 135.709 C 184.435 136.594,183.817 137.543,183.817 137.819 C 183.817 138.095,183.695 138.321,183.547 138.321 C 183.398 138.321,182.127 139.179,180.722 140.229 C 176.752 143.195,175.751 143.817,174.941 143.817 C 174.528 143.817,173.677 144.092,173.050 144.427 C 172.423 144.763,171.664 145.038,171.363 145.038 C 171.062 145.038,170.272 145.322,169.607 145.668 C 168.836 146.070,167.369 146.400,165.566 146.577 C 164.009 146.730,162.429 147.024,162.055 147.230 C 161.201 147.698,157.314 147.699,156.438 147.230 C 156.078 147.038,154.774 146.791,153.541 146.682 C 152.190 146.563,150.679 146.197,149.742 145.761 C 148.886 145.364,148.034 145.038,147.849 145.038 C 147.664 145.038,146.853 144.693,146.047 144.272 C 144.523 143.475,144.413 143.409,142.506 142.143 C 141.868 141.720,141.216 141.374,141.056 141.374 C 140.801 141.374,138.260 139.104,135.416 136.336 C 134.476 135.420,132.637 133.151,132.061 132.195 C 131.073 130.555,129.878 128.255,129.540 127.343 C 129.325 126.763,129.041 126.214,128.908 126.122 C 128.599 125.907,127.389 122.402,127.005 120.611 C 126.843 119.855,126.495 118.780,126.231 118.222 C 125.442 116.553,125.559 106.688,126.395 104.359 C 126.740 103.397,127.023 102.309,127.023 101.940 C 127.023 101.571,127.348 100.434,127.745 99.413 C 128.724 96.895,128.806 96.709,129.159 96.183 C 129.328 95.931,129.607 95.382,129.778 94.962 C 130.806 92.451,135.059 86.718,135.893 86.718 C 136.053 86.718,136.183 86.511,136.183 86.260 C 136.183 86.008,136.305 85.802,136.454 85.802 C 136.604 85.802,137.353 85.183,138.119 84.427 C 138.886 83.672,139.610 83.053,139.728 83.053 C 139.846 83.053,140.368 82.730,140.887 82.334 C 141.407 81.938,142.141 81.517,142.519 81.397 C 142.897 81.278,143.206 81.052,143.206 80.895 C 143.206 80.739,143.380 80.611,143.593 80.611 C 143.806 80.611,144.490 80.264,145.113 79.841 C 145.736 79.418,146.695 78.987,147.245 78.883 C 147.795 78.780,148.451 78.517,148.704 78.299 C 149.145 77.919,153.250 77.100,157.099 76.624 C 159.183 76.366,162.672 76.542,163.904 76.966 M244.054 76.971 C 244.595 77.126,246.192 77.397,247.602 77.572 C 249.012 77.747,250.451 78.091,250.800 78.335 C 251.148 78.579,251.767 78.779,252.175 78.779 C 252.583 78.779,253.686 79.139,254.626 79.580 C 255.566 80.021,256.885 80.626,257.557 80.924 C 262.106 82.946,262.756 83.396,262.707 84.493 C 262.685 85.001,262.451 85.813,262.188 86.296 C 261.925 86.780,261.536 87.519,261.325 87.939 C 260.437 89.704,257.936 94.046,257.807 94.046 C 257.730 94.046,257.057 93.626,256.311 93.113 C 255.565 92.600,254.510 91.979,253.966 91.734 C 253.422 91.489,252.771 91.158,252.519 90.999 C 251.545 90.385,248.618 89.160,248.122 89.160 C 247.835 89.160,246.955 88.865,246.166 88.504 C 244.279 87.641,234.640 87.467,233.684 88.279 C 233.379 88.538,232.511 88.924,231.756 89.137 C 230.347 89.534,229.008 90.515,229.008 91.151 C 229.008 91.348,228.751 91.740,228.438 92.024 C 227.730 92.665,227.378 95.661,227.744 97.943 C 227.989 99.472,230.830 102.879,231.875 102.896 C 232.024 102.899,232.712 103.162,233.402 103.482 C 236.107 104.734,238.083 105.377,240.119 105.666 C 241.287 105.831,242.405 106.101,242.602 106.265 C 242.800 106.429,243.703 106.703,244.610 106.874 C 245.517 107.044,246.698 107.391,247.234 107.644 C 247.770 107.897,248.834 108.220,249.597 108.363 C 250.361 108.506,251.159 108.762,251.371 108.932 C 251.583 109.103,252.237 109.342,252.824 109.464 C 253.412 109.586,254.099 109.863,254.351 110.079 C 254.603 110.294,255.318 110.726,255.941 111.037 C 258.169 112.151,261.058 114.052,261.063 114.407 C 261.066 114.606,261.344 114.855,261.679 114.962 C 262.015 115.068,262.296 115.318,262.302 115.517 C 262.309 115.715,262.722 116.354,263.219 116.935 C 263.716 117.516,264.122 118.110,264.122 118.255 C 264.122 118.399,264.328 118.723,264.580 118.975 C 264.832 119.227,265.038 119.813,265.038 120.278 C 265.038 120.743,265.313 122.198,265.649 123.511 C 266.799 128.009,265.383 135.370,262.833 138.149 C 262.534 138.475,262.286 138.887,262.280 139.065 C 262.240 140.416,255.052 145.344,253.122 145.344 C 252.901 145.344,252.471 145.568,252.168 145.843 C 251.790 146.185,250.673 146.425,248.632 146.603 C 246.991 146.746,245.099 146.997,244.427 147.161 C 242.269 147.687,240.205 147.801,238.015 147.515 C 230.205 146.497,228.242 146.198,227.795 145.959 C 227.517 145.810,226.406 145.484,225.325 145.233 C 224.243 144.982,222.947 144.561,222.443 144.299 C 221.939 144.036,221.372 143.820,221.182 143.819 C 220.992 143.818,220.099 143.490,219.197 143.091 C 218.295 142.692,217.351 142.277,217.099 142.169 C 216.847 142.061,216.092 141.635,215.420 141.222 C 214.748 140.809,213.668 140.235,213.020 139.947 C 211.663 139.344,211.578 137.513,212.827 135.814 C 213.161 135.359,213.435 134.807,213.435 134.587 C 213.435 134.367,213.757 133.709,214.151 133.124 C 214.545 132.540,214.960 131.683,215.073 131.221 C 215.186 130.760,215.408 130.382,215.567 130.382 C 215.725 130.382,216.002 129.832,216.183 129.160 C 216.590 127.651,216.512 127.647,219.093 129.311 C 220.264 130.066,221.346 130.684,221.498 130.685 C 221.650 130.686,222.225 131.031,222.775 131.450 C 223.326 131.870,223.961 132.214,224.186 132.214 C 224.412 132.214,224.912 132.434,225.296 132.704 C 225.681 132.973,226.837 133.390,227.864 133.629 C 228.891 133.869,229.903 134.207,230.112 134.381 C 230.321 134.555,231.429 134.827,232.575 134.986 C 233.720 135.145,235.570 135.495,236.687 135.763 C 239.455 136.428,245.309 136.266,246.404 135.494 C 246.819 135.201,247.477 134.962,247.866 134.962 C 251.246 134.962,253.601 127.427,251.064 124.733 C 249.364 122.928,247.265 121.223,246.730 121.212 C 246.471 121.207,245.573 120.864,244.733 120.451 C 243.893 120.038,242.896 119.699,242.518 119.697 C 242.140 119.696,241.317 119.420,240.690 119.084 C 240.064 118.748,239.205 118.472,238.783 118.471 C 238.361 118.470,237.606 118.256,237.105 117.995 C 236.605 117.734,235.506 117.375,234.663 117.197 C 233.820 117.018,232.786 116.699,232.366 116.488 C 231.947 116.276,230.985 116.008,230.229 115.893 C 228.906 115.691,228.441 115.511,224.728 113.768 C 223.802 113.333,222.950 112.977,222.834 112.977 C 222.270 112.977,220.089 111.246,217.876 109.041 C 216.513 107.683,214.963 105.095,214.960 104.170 C 214.959 103.892,214.752 103.269,214.501 102.787 C 212.155 98.290,215.274 87.491,220.153 83.213 C 221.412 82.108,222.660 81.002,222.926 80.755 C 223.192 80.508,223.495 80.305,223.600 80.305 C 223.704 80.305,224.296 79.962,224.915 79.542 C 225.533 79.122,226.364 78.779,226.761 78.779 C 227.158 78.779,227.996 78.504,228.623 78.168 C 229.249 77.832,230.270 77.557,230.892 77.557 C 231.513 77.557,232.408 77.395,232.881 77.196 C 234.793 76.393,241.565 76.257,244.054 76.971 " stroke="none" fill="#a4acdc" fill-rule="evenodd"></path></g></svg>